<?xml version="1.0" encoding="UTF-8" standalone="no"?>
<!-- Created with Inkscape (http://www.inkscape.org/) -->

<svg
   width="249.25061mm"
   height="188.16443mm"
   viewBox="0 0 249.25062 188.16442"
   version="1.1"
   id="svg5"
   inkscape:version="1.2.1 (9c6d41e, 2022-07-14)"
   sodipodi:docname="drawing.svg"
   xmlns:inkscape="http://www.inkscape.org/namespaces/inkscape"
   xmlns:sodipodi="http://sodipodi.sourceforge.net/DTD/sodipodi-0.dtd"
   xmlns="http://www.w3.org/2000/svg"
   xmlns:svg="http://www.w3.org/2000/svg">
  <sodipodi:namedview
     id="namedview7"
     pagecolor="#ffffff"
     bordercolor="#000000"
     borderopacity="0.25"
     inkscape:showpageshadow="2"
     inkscape:pageopacity="0.0"
     inkscape:pagecheckerboard="0"
     inkscape:deskcolor="#d1d1d1"
     inkscape:document-units="mm"
     showgrid="false"
     inkscape:zoom="0.70710681"
     inkscape:cx="582.65596"
     inkscape:cy="432.74933"
     inkscape:window-width="1920"
     inkscape:window-height="1031"
     inkscape:window-x="0"
     inkscape:window-y="25"
     inkscape:window-maximized="1"
     inkscape:current-layer="layer1"
     showguides="true" />
  <defs
     id="defs2">
    <rect
       x="371.30026"
       y="295.30054"
       width="72.362366"
       height="31.256329"
       id="rect1422" />
    <rect
       x="368.37515"
       y="292.08762"
       width="50.042667"
       height="13.477583"
       id="rect1052" />
    <inkscape:path-effect
       effect="roughen"
       id="path-effect871"
       is_visible="true"
       lpeversion="1.2"
       method="size"
       max_segment_size="1.45104"
       segments="2"
       displace_x="0.48368;1"
       displace_y="0.621663;1"
       global_randomize="1;1"
       handles="along"
       shift_nodes="true"
       fixed_displacement="false"
       spray_tool_friendly="false" />
    <inkscape:path-effect
       effect="roughen"
       id="path-effect869"
       is_visible="true"
       lpeversion="1.2"
       method="size"
       max_segment_size="0.012"
       segments="4"
       displace_x="0.01;1"
       displace_y="0.02;1"
       global_randomize="0.3;1"
       handles="along"
       shift_nodes="true"
       fixed_displacement="false"
       spray_tool_friendly="false" />
    <inkscape:path-effect
       effect="rough_hatches"
       id="path-effect867"
       is_visible="true"
       lpeversion="1.2"
       direction="92.531451,78.622279 , 0.1443495,0"
       dist_rdm="30;1"
       growth="0"
       do_bend="true"
       bender="92.531451,83.622279 , 5,0"
       bottom_edge_variation="0.2;1"
       top_edge_variation="0.2;1"
       bottom_tgt_variation="0;1"
       top_tgt_variation="0.2;1"
       scale_bf="1"
       scale_bb="0.2"
       scale_tf="0.2"
       scale_tb="1"
       top_smth_variation="0;1"
       bottom_smth_variation="0;1"
       fat_output="true"
       stroke_width_top="1"
       stroke_width_bottom="1"
       front_thickness="1"
       back_thickness="0.25" />
    <inkscape:path-effect
       effect="powerstroke"
       id="path-effect6558"
       is_visible="true"
       lpeversion="1"
       offset_points="0,3.3398004"
       not_jump="false"
       sort_points="true"
       interpolator_type="CubicBezierJohan"
       interpolator_beta="0.2"
       start_linecap_type="zerowidth"
       linejoin_type="extrp_arc"
       miter_limit="4"
       scale_width="1"
       end_linecap_type="zerowidth" />
    <inkscape:path-effect
       effect="powerstroke"
       id="path-effect11271"
       is_visible="true"
       lpeversion="1"
       offset_points="0,3.3398004"
       not_jump="false"
       sort_points="true"
       interpolator_type="CubicBezierJohan"
       interpolator_beta="0.2"
       start_linecap_type="zerowidth"
       linejoin_type="extrp_arc"
       miter_limit="4"
       scale_width="1"
       end_linecap_type="zerowidth" />
    <inkscape:path-effect
       effect="powerstroke"
       id="path-effect11247"
       is_visible="true"
       lpeversion="1"
       offset_points="0,3.3398004"
       not_jump="false"
       sort_points="true"
       interpolator_type="CubicBezierJohan"
       interpolator_beta="0.2"
       start_linecap_type="zerowidth"
       linejoin_type="extrp_arc"
       miter_limit="4"
       scale_width="1"
       end_linecap_type="zerowidth" />
    <inkscape:path-effect
       effect="powerstroke"
       id="path-effect11241"
       is_visible="true"
       lpeversion="1"
       offset_points="0,3.3398004"
       not_jump="false"
       sort_points="true"
       interpolator_type="CubicBezierJohan"
       interpolator_beta="0.2"
       start_linecap_type="zerowidth"
       linejoin_type="extrp_arc"
       miter_limit="4"
       scale_width="1"
       end_linecap_type="zerowidth" />
    <inkscape:path-effect
       effect="powerstroke"
       id="path-effect11237"
       is_visible="true"
       lpeversion="1"
       offset_points="0,3.3398004"
       not_jump="false"
       sort_points="true"
       interpolator_type="CubicBezierJohan"
       interpolator_beta="0.2"
       start_linecap_type="zerowidth"
       linejoin_type="extrp_arc"
       miter_limit="4"
       scale_width="1"
       end_linecap_type="zerowidth" />
    <inkscape:path-effect
       effect="powerstroke"
       id="path-effect11233"
       is_visible="true"
       lpeversion="1"
       offset_points="0,3.3398004"
       not_jump="false"
       sort_points="true"
       interpolator_type="CubicBezierJohan"
       interpolator_beta="0.2"
       start_linecap_type="zerowidth"
       linejoin_type="extrp_arc"
       miter_limit="4"
       scale_width="1"
       end_linecap_type="zerowidth" />
    <inkscape:path-effect
       effect="powerstroke"
       id="path-effect11229"
       is_visible="true"
       lpeversion="1"
       offset_points="0,3.3398004"
       not_jump="false"
       sort_points="true"
       interpolator_type="CubicBezierJohan"
       interpolator_beta="0.2"
       start_linecap_type="zerowidth"
       linejoin_type="extrp_arc"
       miter_limit="4"
       scale_width="1"
       end_linecap_type="zerowidth" />
    <inkscape:path-effect
       effect="powerstroke"
       id="path-effect11225"
       is_visible="true"
       lpeversion="1"
       offset_points="0,3.3398004"
       not_jump="false"
       sort_points="true"
       interpolator_type="CubicBezierJohan"
       interpolator_beta="0.2"
       start_linecap_type="zerowidth"
       linejoin_type="extrp_arc"
       miter_limit="4"
       scale_width="1"
       end_linecap_type="zerowidth" />
    <inkscape:path-effect
       effect="powerstroke"
       id="path-effect11212"
       is_visible="true"
       lpeversion="1"
       offset_points="0,3.3398004"
       not_jump="false"
       sort_points="true"
       interpolator_type="CubicBezierJohan"
       interpolator_beta="0.2"
       start_linecap_type="zerowidth"
       linejoin_type="extrp_arc"
       miter_limit="4"
       scale_width="1"
       end_linecap_type="zerowidth" />
    <inkscape:path-effect
       effect="powerstroke"
       id="path-effect10473"
       is_visible="true"
       lpeversion="1"
       offset_points="2.9940166,3.3398004"
       not_jump="false"
       sort_points="true"
       interpolator_type="CubicBezierJohan"
       interpolator_beta="0.2"
       start_linecap_type="zerowidth"
       linejoin_type="extrp_arc"
       miter_limit="4"
       scale_width="1"
       end_linecap_type="zerowidth" />
    <inkscape:path-effect
       effect="powerstroke"
       id="path-effect10469"
       is_visible="true"
       lpeversion="1"
       offset_points="0,3.0562623"
       not_jump="false"
       sort_points="true"
       interpolator_type="CubicBezierJohan"
       interpolator_beta="0.2"
       start_linecap_type="zerowidth"
       linejoin_type="extrp_arc"
       miter_limit="4"
       scale_width="1"
       end_linecap_type="zerowidth" />
    <inkscape:path-effect
       effect="powerstroke"
       id="path-effect9735"
       is_visible="true"
       lpeversion="1"
       offset_points="0,3.0562623"
       not_jump="false"
       sort_points="true"
       interpolator_type="CubicBezierJohan"
       interpolator_beta="0.2"
       start_linecap_type="zerowidth"
       linejoin_type="extrp_arc"
       miter_limit="4"
       scale_width="1"
       end_linecap_type="zerowidth" />
    <inkscape:path-effect
       effect="powerstroke"
       id="path-effect5595"
       is_visible="true"
       lpeversion="1"
       offset_points="0.11099782,4.9921382"
       not_jump="false"
       sort_points="true"
       interpolator_type="CubicBezierJohan"
       interpolator_beta="0.2"
       start_linecap_type="zerowidth"
       linejoin_type="extrp_arc"
       miter_limit="4"
       scale_width="1"
       end_linecap_type="zerowidth" />
    <inkscape:path-effect
       effect="powerstroke"
       id="path-effect115"
       is_visible="true"
       lpeversion="1"
       offset_points="0,4.9921382"
       not_jump="false"
       sort_points="true"
       interpolator_type="CubicBezierJohan"
       interpolator_beta="0.2"
       start_linecap_type="zerowidth"
       linejoin_type="extrp_arc"
       miter_limit="4"
       scale_width="1"
       end_linecap_type="zerowidth" />
    <inkscape:path-effect
       effect="fill_between_many"
       method="bsplinespiro"
       linkedpaths="#path113,0,1"
       id="path-effect117"
       is_visible="true"
       lpeversion="0"
       join="true"
       close="true"
       autoreverse="true" />
    <inkscape:path-effect
       effect="fill_between_many"
       method="bsplinespiro"
       linkedpaths="#path5593,0,1"
       id="path-effect5597"
       join="true"
       close="true"
       autoreverse="true"
       is_visible="true"
       lpeversion="0" />
  </defs>
  <g
     inkscape:label="Layer 1"
     inkscape:groupmode="layer"
     id="layer1"
     transform="translate(-77.989547,77.490957)">
    <g
       id="g1464"
       transform="matrix(15.943539,16.696922,-16.696922,15.943539,83.782158,-2847.003)">
      <path
         id="rect9432"
         style="display:inline;fill:#9c6900;fill-opacity:1;stroke:none;stroke-width:0.0464874;stroke-miterlimit:1.6;stroke-dasharray:none"
         d="m 92.757447,88.36854 c -0.0027,0.0027 -0.006,0.0047 -0.009,0.0072 -0.0036,9.79e-4 -0.0046,0.0058 -0.0079,0.0082 -0.0017,0.0032 -0.0075,0.0036 -0.01118,0.0058 -0.0039,8.22e-4 -0.0074,0.0032 -0.01111,0.0051 -0.004,9.78e-4 -0.0073,0.0036 -0.01109,0.0052 -0.0038,0.0016 -0.0071,0.0038 -0.01107,0.0053 -0.0036,0.0021 -0.0087,0.0012 -0.01287,0.0026 -0.0046,-4.52e-4 -0.0074,0.0033 -0.01162,0.0044 -0.0036,0.0019 -0.009,0.0024 -0.01361,0.0034 -0.0044,0.001 -0.0084,0.0025 -0.01292,0.0033 -0.0042,0.0014 -0.0093,0.0017 -0.01409,0.0025 -0.0046,7.65e-4 -0.0093,0.0014 -0.01411,0.002 -0.0047,5.99e-4 -0.01027,-0.0024 -0.01516,-0.002 -0.0054,-0.0031 -0.01004,-0.0013 -0.01485,-9.65e-4 -0.0053,-0.0018 -0.0088,6.67e-4 -0.01365,8.81e-4 -0.0044,3.14e-4 -0.01047,4.97e-4 -0.01578,6.13e-4 -0.005,2.05e-4 -0.01009,2.68e-4 -0.0152,2.79e-4 -0.0051,1.09e-4 -0.01012,1.7e-4 -0.01528,8.6e-5 -0.005,1.13e-4 -0.0078,5.9e-5 -0.01306,-1.15e-4 -0.0035,7.3e-5 -0.01236,-0.0045 -0.01839,-0.0048 -0.0053,-0.0043 -0.0098,-3.45e-4 -0.0148,-6.67e-4 -0.005,-1.32e-4 -0.01041,-5.46e-4 -0.01565,-9.49e-4 -0.0051,-2.35e-4 -0.0089,4.12e-4 -0.01406,-4.7e-5 -0.0042,7.4e-4 -0.0114,-0.0015 -0.01706,-0.002 -0.0051,-9.48e-4 -0.01018,-0.0013 -0.01523,-0.0019 -0.0051,-8.12e-4 -0.0103,-0.002 -0.01531,-0.0026 -0.0051,-0.0014 -0.01014,-0.0021 -0.01499,-0.0027 -0.0051,-0.0015 -0.0097,-0.0034 -0.01446,-0.004 -0.0049,-0.0028 -0.0096,-0.0017 -0.01426,-0.0024 -0.0049,-0.0011 -0.0094,-0.0015 -0.01404,-0.0021 -0.0047,-8.06e-4 -0.0096,-0.0043 -0.01412,-0.005 -0.0046,-0.0036 -0.007,-2.66e-4 -0.01116,-9.06e-4 -0.0034,2.68e-4 -0.0096,-8.77e-4 -0.01451,-0.0016 -0.0041,-3.8e-5 -0.0081,-3.22e-4 -0.01244,-9.96e-4 -0.0037,3.52e-4 -0.0072,-0.0011 -0.01149,-0.0017 -0.003,-3.92e-4 -0.0095,-0.0034 -0.01384,-0.0041 -0.0041,-0.0025 -0.0064,-6e-4 -0.0097,-0.0012 -0.0033,-8.2e-5 -0.0081,-0.0055 -0.01169,-0.0061 -0.0036,-0.0048 -0.0059,-6.57e-4 -0.0088,-0.0011 -0.0032,-1.82e-4 -0.0054,-8.87e-4 -0.0085,-0.0013 -0.0023,-3.93e-4 -0.0071,-0.0019 -0.01027,-0.0023 -0.003,-0.0013 -0.0043,5.06e-4 -0.0067,2.71e-4 -0.002,8.1e-4 -0.0058,-0.0012 -0.0083,-0.0014 -0.0024,-8.58e-4 -0.0042,-5.79e-4 -0.0061,-7.12e-4 -0.002,-3.67e-4 -0.0044,-0.0039 -0.006,-0.004 -0.0025,-0.0037 -0.004,-0.0015 -0.0054,-0.0012 -0.0031,-0.0011 -0.0049,-0.0011 -0.006,9.6e-5 -0.0013,-0.0021 -8.36e-4,0.0024 -8.36e-4,0.0024 -2.08e-4,-0.0023 9.1e-5,-0.0021 9.1e-5,-0.0021 0,0 7.7e-5,0.0024 7.7e-5,0.0024 0,0 6e-5,9.3e-5 6e-5,6.5e-5 5.9e-5,6.3e-5 0.0024,8.46e-4 0.0024,7.34e-4 0.0024,7.27e-4 9.62e-4,-2.76e-4 9.59e-4,-8.28e-4 9.64e-4,1.61e-4 -2.64e-4,-0.0057 -2.65e-4,-0.0059 -2.61e-4,-0.0053 -6.4e-5,-1.91e-4 -6.4e-5,-1.91e-4 -6.5e-5,-1.9e-4 5.33e-4,8.38e-4 5.33e-4,8.38e-4 5.33e-4,8.38e-4 -8.3e-5,-1.83e-4 -8.3e-5,-1.83e-4 -8.2e-5,-1.83e-4 0.0012,7.27e-4 0.0012,7.27e-4 0.0012,7.28e-4 2.1e-5,2.1e-5 2.1e-5,2.1e-5 2e-5,2e-5 0.0013,5.96e-4 0.0013,5.96e-4 0.0013,3.25e-4 -5.7e-5,-7.01e-4 -5.8e-5,-0.001 -5.5e-5,-3.88e-4 -4.39e-4,-0.002 -4.41e-4,-0.0022 -4.35e-4,-0.0014 7.13e-4,6.67e-4 7.13e-4,6.67e-4 7.09e-4,2.41e-4 2.06e-4,-5.11e-4 2.03e-4,-0.001 2.09e-4,-1.14e-4 4.41e-4,-2.94e-4 4.38e-4,-8.51e-4 4.43e-4,9.5e-5 7.24e-4,-2.09e-4 7.2e-4,-9.15e-4 7.28e-4,3.14e-4 0.0015,-5.31e-4 0.0015,-0.0014 0.0015,2.56e-4 -5.23e-4,-0.0045 -5.28e-4,-0.0054 -5.14e-4,-0.0029 1.67e-4,2.87e-4 1.67e-4,2.87e-4 1.67e-4,1.15e-4 -4.07e-4,-0.0018 -4.08e-4,-0.002 -4.06e-4,-0.0015 0.0016,3.75e-4 0.0016,3.14e-4 0.0016,-2.29e-4 0.0016,-1.91e-4 0.0016,-9.72e-4 0.0016,2.89e-4 -1.3e-5,-0.0039 -1.9e-5,-0.005 -1e-6,-0.0019 -1.71e-4,-4.72e-4 -1.71e-4,-4.93e-4 -1.74e-4,-9.39e-4 9.4e-4,-8.56e-4 9.37e-4,-0.0014 9.43e-4,-5.57e-4 -1.18e-4,-0.0019 -1.23e-4,-0.0027 -1.13e-4,-9.8e-4 -7.4e-5,-0.0052 -7.7e-5,-0.0058 -6.7e-5,-0.0041 9.9e-5,1.49e-4 9.9e-5,1.49e-4 9.7e-5,-4.4e-5 5.35e-4,1.99e-4 5.34e-4,3e-6 5.32e-4,-3.76e-4 -2.02e-4,-0.0033 -2.08e-4,-0.0043 -1.92e-4,-0.0017 -3.01e-4,-0.0018 -3.03e-4,-0.0022 -2.99e-4,-0.0015 0.0016,3.37e-4 0.0016,-1.63e-4 0.0016,4.2e-5 -2.21e-4,-0.0034 -2.29e-4,-0.0047 -2.09e-4,-0.0014 -2.94e-4,-0.002 -2.98e-4,-0.0026 -2.9e-4,-0.0014 -2.5e-5,-0.0014 -3e-5,-0.0021 -2.2e-5,-9.6e-4 6.6e-5,-0.0018 6e-5,-0.0028 7e-5,-9.53e-4 4.98e-4,-0.0018 4.92e-4,-0.0028 5.04e-4,-8.77e-4 -6.09e-4,-0.0048 -6.15e-4,-0.0059 -5.96e-4,-0.0028 -3.7e-5,-0.0018 -3.8e-5,-0.0019 -3.9e-5,-0.0021 0.0017,1.52e-4 0.0017,-3.7e-4 0.0017,-2.59e-4 -1.01e-4,-0.0067 -1.11e-4,-0.0083 -8.2e-5,-0.0038 -2.7e-5,-5.7e-4 -2.7e-5,-5.7e-4 -3.2e-5,-0.0013 -1.7e-5,-0.0015 -2.2e-5,-0.0023 -1.4e-5,-0.0011 0.0017,-9.16e-4 0.0016,-0.0021 0.0017,-2.43e-4 -2.63e-4,-0.0038 -2.74e-4,-0.0055 -2.48e-4,-0.0016 0.0012,-6.71e-4 0.0012,-0.0017 0.0012,-3.25e-4 -1.88e-4,-0.0037 -1.99e-4,-0.0054 -1.75e-4,-0.0015 -2.59e-4,-0.0069 -2.66e-4,-0.008 -2.44e-4,-0.0046 -5.71e-4,-0.0017 -5.71e-4,-0.0017 -5.74e-4,-0.0022 0.0019,-4.69e-4 0.0019,-9.16e-4 0.0019,-0.001 0.0011,-0.002 0.0011,-0.0035 0.0012,-7.26e-4 2.6e-4,-0.0029 2.49e-4,-0.0045 2.72e-4,-0.0011 5.25e-4,-0.0026 5.15e-4,-0.0041 5.35e-4,-0.0011 2.86e-4,-0.0025 2.76e-4,-0.0041 2.96e-4,-0.0011 4.2e-5,-0.0031 3.2e-5,-0.0047 5.3e-5,-0.0014 0.0015,-0.0022 0.0015,-0.0037 0.0015,-9.62e-4 0.0014,-0.0026 0.0014,-0.0044 0.0014,-9.44e-4 0.0016,-0.0035 0.0016,-0.0052 0.0016,-0.0015 0.0023,-0.0024 0.0022,-0.004 0.0023,-0.0011 5.73e-4,-0.0026 5.61e-4,-0.0044 5.85e-4,-9.45e-4 3.35e-4,-0.0032 3.23e-4,-0.0051 3.48e-4,-0.0012 -1.45e-4,-0.0038 -1.57e-4,-0.0056 -1.31e-4,-0.0018 -1.93e-4,-0.004 -2.04e-4,-0.0055 -1.81e-4,-0.0023 6.8e-4,-0.0016 6.71e-4,-0.003 6.84e-4,-9.57e-4 1.71e-4,-0.0037 1.57e-4,-0.0057 1.87e-4,-0.0015 -4.73e-4,-0.0062 -4.85e-4,-0.008 -4.54e-4,-0.0034 -6.9e-5,-0.002 -7.5e-5,-0.0028 -6.9e-5,-0.0019 -4.5e-5,-0.0033 -5.7e-5,-0.005 -3.4e-5,-0.0018 -3.71e-4,-0.005 -3.83e-4,-0.0067 -3.56e-4,-0.0028 -1.8e-5,-0.0025 -2.7e-5,-0.0038 -1.2e-5,-0.0018 1.69e-4,-0.0033 1.56e-4,-0.0051 1.8e-4,-0.0016 -2.93e-4,-0.0044 -3.06e-4,-0.0064 -2.78e-4,-0.0022 4.88e-4,-0.0025 4.77e-4,-0.0042 4.97e-4,-0.0013 5.06e-4,-0.0034 4.91e-4,-0.0055 5.21e-4,-0.0013 9.18e-4,-0.0031 9.02e-4,-0.0053 9.33e-4,-0.0011 -4.6e-5,-0.0047 -6.3e-5,-0.007 -2.7e-5,-0.0019 0.0021,-0.0033 0.0021,-0.0053 0.0021,-0.0016 2.98e-4,-0.0038 2.82e-4,-0.006 3.14e-4,-0.0016 -2.46e-4,-0.0048 -2.61e-4,-0.007 -2.29e-4,-0.0023 -8.4e-5,-0.0038 -9.8e-5,-0.0056 -7.2e-5,-0.0021 -4.3e-5,-0.004 -5.8e-5,-0.006 -2.9e-5,-0.0021 1.8e-4,-0.0037 1.65e-4,-0.0057 1.92e-4,-0.0018 -1.1e-4,-0.0046 -1.26e-4,-0.0069 -9.3e-5,-0.0022 -1.08e-4,-0.0047 -1.23e-4,-0.0068 -9.2e-5,-0.0026 -3.85e-4,-0.0058 -3.98e-4,-0.0077 -3.68e-4,-0.0035 5.6e-5,-0.0029 4.5e-5,-0.0043 6.2e-5,-0.0021 -1.17e-4,-0.0045 -1.33e-4,-0.0067 -1e-4,-0.0023 -2.75e-4,-0.0055 -2.91e-4,-0.0076 -2.58e-4,-0.003 -1.85e-4,-0.0039 -1.98e-4,-0.0058 -1.74e-4,-0.0024 0.0016,-0.0037 0.0016,-0.0059 0.0016,-0.0019 -1.19e-4,-0.0055 -1.37e-4,-0.008 -9.9e-5,-0.0027 8.51e-4,-0.0029 8.36e-4,-0.0049 8.61e-4,-0.0015 -5.97e-4,-0.0078 -6.17e-4,-0.01049 -5.69e-4,-0.0039 0.0019,-0.0017 0.0018,-0.0033 0.0019,-0.0014 2.9e-5,-0.0055 9e-6,-0.0083 5.3e-5,-0.0023 -3.6e-5,-0.0048 -5.4e-5,-0.0072 -1.8e-5,-0.0024 8.4e-5,-0.0047 6.6e-5,-0.0071 1.02e-4,-0.0024 -4.7e-5,-0.0049 -6.5e-5,-0.0073 -2.9e-5,-0.0024 2.47e-4,-0.0043 2.29e-4,-0.0067 2.63e-4,-0.0021 7e-6,-0.0051 -1.3e-5,-0.0078 2.8e-5,-0.0024 -9.3e-5,-0.01051 -1.12e-4,-0.01302 -6.1e-5,-0.0062 1e-5,-0.0013 5e-6,-0.0019 10e-7,-0.0025 -5.11e-4,-0.0064 -5.3e-4,-0.0089 -4.89e-4,-0.0034 2.36e-4,-0.0037 2.21e-4,-0.0058 2.47e-4,-0.0022 8.19e-4,-0.0045 7.98e-4,-0.0072 8.39e-4,-0.002 -2.24e-4,-0.0061 -2.46e-4,-0.009 -1.99e-4,-0.0028 -1.91e-4,-0.006 -2.1e-4,-0.0085 -1.72e-4,-0.0033 -1.87e-4,-0.0063 -2.04e-4,-0.0086 -1.68e-4,-0.0038 -3.91e-4,-0.005 -4.07e-4,-0.0071 -3.77e-4,-0.0033 9.37e-4,-0.0042 9.19e-4,-0.0066 9.51e-4,-0.0024 8.6e-5,-0.0056 6.4e-5,-0.0084 1.08e-4,-0.0026 4.23e-4,-0.0047 4.02e-4,-0.0075 4.43e-4,-0.0022 0.0018,-0.005 0.0018,-0.008 0.0018,-0.0021 -4.24e-4,-0.0072 -4.47e-4,-0.01025 -3.95e-4,-0.0035 -7.8e-5,-0.005 -9.7e-5,-0.0074 -6.2e-5,-0.0029 3.77e-4,-0.0053 3.56e-4,-0.008 3.97e-4,-0.0027 6.81e-4,-0.0052 6.59e-4,-0.0081 7.03e-4,-0.0025 0.002,-0.0057 0.002,-0.0087 0.0021,-0.0026 0.0014,-0.0047 0.0013,-0.0077 0.0014,-0.0021 5.92e-4,-0.0057 5.67e-4,-0.009 6.18e-4,-0.0023 0.0012,-0.0051 0.0012,-0.0082 0.0012,-0.0021 -4.72e-4,-0.0077 -4.98e-4,-0.011 -4.4e-4,-0.0036 0.0012,-0.0048 0.0012,-0.0074 0.0013,-0.0027 -6.02e-4,-0.0087 -6.26e-4,-0.01172 -5.71e-4,-0.0047 -4.28e-4,-0.0054 -4.45e-4,-0.0075 -4.15e-4,-0.0037 3.13e-4,-0.0052 2.93e-4,-0.0078 3.3e-4,-0.003 0.0014,-0.0058 0.0014,-0.0088 0.0014,-0.0029 -1.59e-4,-0.0066 -1.84e-4,-0.0098 -1.33e-4,-0.0033 1.41e-4,-0.0055 1.18e-4,-0.0084 1.62e-4,-0.0028 -5.92e-4,-0.01046 -6.18e-4,-0.01364 -5.55e-4,-0.0058 -4.3e-5,-0.0034 -5.7e-5,-0.0052 -4e-5,-0.0031 3.32e-4,-0.0055 3.07e-4,-0.0086 3.55e-4,-0.0027 3.07e-4,-0.0061 2.8e-4,-0.0094 3.34e-4,-0.0027 -4.26e-4,-0.0076 -4.54e-4,-0.011 -3.95e-4,-0.0038 1.64e-4,-0.0053 1.41e-4,-0.0082 1.82e-4,-0.0029 -8.7e-5,-0.0066 -1.14e-4,-0.01 -5.9e-5,-0.0032 5.5e-4,-0.0055 5.24e-4,-0.0087 5.73e-4,-0.0027 0.001,-0.0069 9.79e-4,-0.0104 0.001,-0.0032 -5.17e-4,-0.0085 -5.44e-4,-0.01175 -4.86e-4,-0.0046 1.42e-4,-0.0049 1.21e-4,-0.0075 1.57e-4,-0.0031 5.74e-4,-0.0058 5.47e-4,-0.0091 6e-4,-0.0026 4.42e-4,-0.0071 4.13e-4,-0.01069 4.74e-4,-0.0032 0.0012,-0.0054 0.0011,-0.0088 0.0012,-0.0025 -1.72e-4,-0.0082 -2.03e-4,-0.01202 -1.35e-4,-0.0038 -1.19e-4,-0.0077 -1.45e-4,-0.01085 -9.2e-5,-0.0044 -8.5e-5,-0.0083 -1.09e-4,-0.01112 -5.9e-5,-0.0051 -1.39e-4,-0.0053 -1.6e-4,-0.0078 -1.24e-4,-0.0035 5.49e-4,-0.0062 5.21e-4,-0.0095 5.75e-4,-0.0031 2.41e-4,-0.0068 2.11e-4,-0.01042 2.72e-4,-0.0032 -1.31e-4,-0.01083 -1.61e-4,-0.0144 -9.1e-5,-0.0059 3.69e-4,-0.004 3.51e-4,-0.0062 3.76e-4,-0.0032 -7.2e-5,-0.0073 -1.02e-4,-0.01096 -4e-5,-0.0035 -6.61e-4,-0.0096 -6.9e-4,-0.01312 -6.24e-4,-0.0053 -1.73e-4,-0.0068 -1.95e-4,-0.0094 -1.55e-4,-0.0046 -1.2e-5,-0.0059 -3.7e-5,-0.0089 8e-6,-0.0035 -1.34e-4,-0.0073 -1.64e-4,-0.01087 -1.03e-4,-0.0037 -3.69e-4,-0.0077 -3.99e-4,-0.01125 -3.38e-4,-0.0041 -4e-6,-0.0066 -3.2e-5,-0.01 2.2e-5,-0.0036 5.5e-5,-0.0071 2.4e-5,-0.01077 8.5e-5,-0.0036 5.1e-5,-0.0072 2e-5,-0.01088 8.2e-5,-0.0036 1.45e-4,-0.0071 1.14e-4,-0.0108 1.76e-4,-0.0035 9.59e-4,-0.0061 9.27e-4,-0.0099 9.87e-4,-0.0028 -1.17e-4,-0.0098 -1.52e-4,-0.01386 -7.4e-5,-0.0047 -1.16e-4,-0.0064 -1.43e-4,-0.0096 -9.3e-5,-0.0038 9.1e-5,-0.0071 6e-5,-0.01075 1.21e-4,-0.0036 -4.66e-4,-0.0086 -4.99e-4,-0.01242 -4.29e-4,-0.0044 -7.6e-5,-0.0068 -1.06e-4,-0.01021 -5e-5,-0.0038 7.9e-5,-0.0072 4.6e-5,-0.01099 1.1e-4,-0.0036 -3.4e-4,-0.009 -3.73e-4,-0.01287 -3.03e-4,-0.0047 9.9e-5,-0.0065 7e-5,-0.0099 1.24e-4,-0.0037 -6.1e-5,-0.0077 -9.4e-5,-0.01158 -2.7e-5,-0.0038 -3.63e-4,-0.0085 -3.96e-4,-0.01229 -3.27e-4,-0.0044 -8.2e-5,-0.0072 -1.13e-4,-0.01074 -5.3e-5,-0.0039 1.17e-4,-0.0073 8.4e-5,-0.01118 1.49e-4,-0.0036 -8.5e-5,-0.008 -1.2e-4,-0.01199 -5e-5,-0.0039 3.98e-4,-0.0077 3.64e-4,-0.01154 4.32e-4,-0.0038 0.0016,-0.0076 0.0016,-0.01151 0.0017,-0.0037 0.0013,-0.0076 0.0012,-0.01165 0.0013,-0.0037 0.0011,-0.0068 0.0011,-0.01093 0.0011,-0.0031 5.5e-5,-0.0086 1.7e-5,-0.01297 9.6e-5,-0.0038 -1.37e-4,-0.0097 -1.72e-4,-0.01378 -9.6e-5,-0.0051 0.0017,-0.0057 0.0016,-0.0091 0.0017,-0.0032 -3.38e-4,-0.01239 -3.77e-4,-0.0168 -2.86e-4,-0.0064 8.11e-4,-0.0045 7.86e-4,-0.0073 8.21e-4,-0.0033 0.0018,-0.0087 0.0017,-0.01308 0.0018,-0.0039 1.92e-4,-0.0078 1.56e-4,-0.01191 2.28e-4,-0.0038 4.45e-4,-0.0082 4.08e-4,-0.01244 4.83e-4,-0.004 -5.7e-5,-0.0082 -9.4e-5,-0.01237 -1.9e-5,-0.0041 -1.12e-4,-0.01086 -1.49e-4,-0.01498 -6.7e-5,-0.0059 0.0028,-0.0063 0.0027,-0.0095 0.0028,-0.004 -4.62e-4,-0.0096 -5e-4,-0.0138 -4.2e-4,-0.005 8.07e-4,-0.0064 7.74e-4,-0.01015 8.33e-4,-0.0035 -2.41e-4,-0.0094 -2.82e-4,-0.01393 -1.96e-4,-0.0044 -1.08e-4,-0.0081 -1.44e-4,-0.01217 -7.3e-5,-0.0042 2.48e-4,-0.0079 2.1e-4,-0.01209 2.85e-4,-0.0039 9.1e-5,-0.0086 5.1e-5,-0.0129 1.31e-4,-0.0041 0.002,-0.0084 0.002,-0.01269 0.0021,-0.0042 -4.44e-4,-0.0099 -4.83e-4,-0.01422 -4.01e-4,-0.0052 -1.04e-4,-0.0076 -1.39e-4,-0.01142 -7.3e-5,-0.0043 -1.26e-4,-0.0096 -1.65e-4,-0.01383 -8.5e-5,-0.005 -2.55e-4,-0.0089 -2.91e-4,-0.01284 -2.19e-4,-0.0051 -1.56e-4,-0.0084 -1.92e-4,-0.01231 -1.22e-4,-0.0047 1.62e-4,-0.0081 1.24e-4,-0.01224 1.98e-4,-0.0043 -1.44e-4,-0.0088 -1.84e-4,-0.01319 -1.03e-4,-0.0044 7.64e-4,-0.0084 7.24e-4,-0.01269 8.03e-4,-0.0042 0.0017,-0.0079 0.0017,-0.0123 0.0017,-0.0037 -1.8e-4,-0.01006 -2.24e-4,-0.01476 -1.31e-4,-0.0048 -2.94e-4,-0.009 -3.33e-4,-0.0132 -2.56e-4,-0.0049 0.0016,-0.0076 0.0016,-0.0117 0.0017,-0.0039 0.0011,-0.0086 0.0011,-0.0133 0.0012,-0.004 8.05e-4,-0.0083 7.61e-4,-0.01299 8.47e-4,-0.0038 0.002,-0.009 0.0019,-0.01375 0.002,-0.0041 -3.28e-4,-0.0099 -3.72e-4,-0.01448 -2.81e-4,-0.0049 6.43e-4,-0.0075 6.03e-4,-0.01175 6.77e-4,-0.0038 -5.3e-5,-0.0096 -9.9e-5,-0.0144 -3e-6,-0.0044 0.0014,-0.0087 0.0014,-0.01324 0.0015,-0.0043 1.48e-4,-0.0092 1.04e-4,-0.0138 1.93e-4,-0.0045 0.0015,-0.0079 0.0014,-0.01245 0.0015,-0.0038 -5.68e-4,-0.01141 -6.16e-4,-0.01634 -5.12e-4,-0.0056 -2.69e-4,-0.0085 -3.08e-4,-0.01249 -2.34e-4,-0.0048 0.0013,-0.0077 0.0013,-0.01209 0.0013,-0.0038 2.37e-4,-0.0095 1.88e-4,-0.0145 2.88e-4,-0.0043 -1.62e-4,-0.01222 -2.08e-4,-0.01695 -1.06e-4,-0.0065 -3.3e-4,-0.0086 -3.66e-4,-0.01224 -2.99e-4,-0.0054 -1.1e-4,-0.0098 -1.52e-4,-0.01405 -6.9e-5,-0.0056 -4.9e-5,-0.0082 -9e-5,-0.01238 -1.3e-5,-0.0046 0.0011,-0.0087 0.0011,-0.01338 0.0012,-0.0042 -3.34e-4,-0.01041 -3.82e-4,-0.01527 -2.82e-4,-0.0051 -5.55e-4,-0.01253 -5.99e-4,-0.01696 -5.02e-4,-0.0071 -5.17e-4,-0.0106 -5.52e-4,-0.01406 -4.83e-4,-0.0072 5.57e-4,-0.0068 5.22e-4,-0.01027 5.79e-4,-0.0046 -1.43e-4,-0.0096 -1.91e-4,-0.01436 -9.6e-5,-0.0048 0.0011,-0.0079 0.0011,-0.01258 0.0012,-0.0038 -2.24e-4,-0.01385 -2.77e-4,-0.01907 -1.56e-4,-0.007 4.7e-4,-0.0065 4.33e-4,-0.01005 4.92e-4,-0.0043 0.0015,-0.0092 0.0015,-0.01419 0.0016,-0.0042 0.0011,-0.0088 0.001,-0.01382 0.0011,-0.0039 -2.67e-4,-0.01081 -3.2e-4,-0.01604 -2.08e-4,-0.005 0.0012,-0.0084 0.0012,-0.01309 0.0013,-0.0042 -8.14e-4,-0.01282 -8.67e-4,-0.01794 -7.5e-4,-0.0065 1.42e-4,-0.0078 1.01e-4,-0.01176 1.73e-4,-0.0048 -2.08e-4,-0.01 -2.58e-4,-0.01481 -1.58e-4,-0.005 2.42e-4,-0.0089 1.93e-4,-0.01367 2.89e-4,-0.0045 -8e-5,-0.01007 -1.33e-4,-0.01513 -2.6e-5,-0.0048 -1.81e-4,-0.01008 -2.32e-4,-0.01496 -1.3e-4,-0.0051 2.42e-4,-0.0091 1.93e-4,-0.01384 2.88e-4,-0.0046 2.6e-4,-0.0099 2.07e-4,-0.01496 3.14e-4,-0.0048 0.0013,-0.0091 0.0012,-0.01403 0.0013,-0.0044 5.47e-4,-0.01012 4.93e-4,-0.01532 6.03e-4,-0.0047 -2.57e-4,-0.01059 -3.1e-4,-0.01561 -2e-4,-0.0053 -5.88e-4,-0.01111 -6.38e-4,-0.01586 -5.35e-4,-0.006 -4.93e-4,-0.01041 -5.4e-4,-0.01482 -4.47e-4,-0.006 1.55e-4,-0.0087 1.08e-4,-0.0131 1.95e-4,-0.0049 -1.15e-4,-0.01006 -1.69e-4,-0.01508 -6.1e-5,-0.005 -2.89e-4,-0.01138 -3.42e-4,-0.01636 -2.31e-4,-0.0059 -4.33e-4,-0.01011 -4.82e-4,-0.01463 -3.87e-4,-0.0057 0.0011,-0.0082 0.001,-0.01286 0.0011,-0.0043 -4.34e-4,-0.01169 -4.92e-4,-0.01707 -3.69e-4,-0.0057 1.27e-4,-0.0093 7.6e-5,-0.01403 1.74e-4,-0.005 -6.13e-4,-0.01218 -6.68e-4,-0.01725 -5.52e-4,-0.0064 0.0013,-0.0079 0.0013,-0.01229 0.0014,-0.0045 -7.24e-4,-0.01401 -7.82e-4,-0.01934 -6.53e-4,-0.0073 8.52e-4,-0.0069 8.09e-4,-0.01086 8.79e-4,-0.0044 -9.3e-5,-0.01076 -1.52e-4,-0.01618 -3.1e-5,-0.0051 -6.88e-4,-0.01394 -7.44e-4,-0.01906 -6.19e-4,-0.0076 -1.65e-4,-0.008 -2.07e-4,-0.0119 -1.36e-4,-0.0053 -1.4e-4,-0.01162 -1.95e-4,-0.01663 -8e-5,-0.0062 6e-6,-0.0091 -4.5e-5,-0.01369 5e-5,-0.0051 -3.58e-4,-0.01087 -4.14e-4,-0.01602 -3e-4,-0.0055 -5.69e-4,-0.01105 -6.24e-4,-0.016 -5.13e-4,-0.0059 3.08e-4,-0.0091 2.56e-4,-0.01389 3.55e-4,-0.0049 -2.7e-5,-0.01045 -8.6e-5,-0.01575 3.3e-5,-0.0051 -1.41e-4,-0.01049 -1.99e-4,-0.01571 -8.3e-5,-0.0052 0.0012,-0.0092 0.0011,-0.01439 0.0012,-0.0045 -8.49e-4,-0.01362 -9.11e-4,-0.01919 -7.74e-4,-0.0069 2.51e-4,-0.0085 2.02e-4,-0.01291 2.9e-4,-0.0051 -4.08e-4,-0.01494 -4.67e-4,-0.02023 -3.32e-4,-0.0081 2.28e-4,-0.007 1.86e-4,-0.01074 2.51e-4,-0.0049 9.02e-4,-0.01054 8.41e-4,-0.01596 9.65e-4,-0.0051 -1.97e-4,-0.01083 -2.57e-4,-0.01618 -1.36e-4,-0.0054 -2.54e-4,-0.01072 -3.13e-4,-0.01592 -1.94e-4,-0.0055 -5.81e-4,-0.01422 -6.39e-4,-0.01938 -5.09e-4,-0.0079 -1.06e-4,-0.0079 -1.51e-4,-0.01191 -7.6e-5,-0.0053 6.2e-5,-0.01024 2e-6,-0.01552 1.21e-4,-0.0051 -9.3e-5,-0.01073 -1.54e-4,-0.01612 -3.1e-5,-0.0053 5.21e-4,-0.01027 4.61e-4,-0.01558 5.8e-4,-0.0051 -4.99e-4,-0.01241 -5.61e-4,-0.01784 -4.29e-4,-0.0063 2.74e-4,-0.0091 2.19e-4,-0.01395 3.22e-4,-0.005 0.0023,-0.01084 0.0023,-0.01632 0.0024,-0.0053 -2e-4,-0.01095 -2.62e-4,-0.01633 -1.37e-4,-0.0055 -7.1e-5,-0.01047 -1.32e-4,-0.01576 -1.2e-5,-0.0053 -4.23e-4,-0.01367 -4.86e-4,-0.01905 -3.49e-4,-0.0073 2.82e-4,-0.0082 2.31e-4,-0.01259 3.19e-4,-0.005 2.39e-4,-0.01069 1.74e-4,-0.01626 3.04e-4,-0.0051 -2.62e-4,-0.01145 -3.27e-4,-0.01699 -1.95e-4,-0.0057 2.4e-4,-0.01019 1.78e-4,-0.01544 2.98e-4,-0.0052 0.0015,-0.01008 0.0014,-0.01559 0.0015,-0.0048 1.34e-4,-0.01112 6.6e-5,-0.01685 2.04e-4,-0.0052 9.01e-4,-0.01097 8.36e-4,-0.01649 9.66e-4,-0.0054 -3.5e-4,-0.01153 -4.14e-4,-0.01698 -2.83e-4,-0.0059 0.0016,-0.0096 0.0015,-0.01478 0.0017,-0.0049 -1.94e-4,-0.01159 -2.62e-4,-0.01733 -1.22e-4,-0.0055 8.9e-4,-0.0096 8.26e-4,-0.01496 9.48e-4,-0.0046 -5.2e-4,-0.01459 -5.9e-4,-0.02047 -4.34e-4,-0.0074 -1.32e-4,-0.0091 -1.86e-4,-0.01359 -9e-5,-0.0055 -5.51e-4,-0.01268 -6.16e-4,-0.01813 -4.79e-4,-0.0067 -2.5e-5,-0.0096 -8.4e-5,-0.01449 2.6e-5,-0.0054 0.0015,-0.0099 0.0014,-0.0154 0.0015,-0.0047 -1.24e-4,-0.01177 -1.95e-4,-0.01769 -4.9e-5,-0.0055 -8.27e-4,-0.0136 -8.94e-4,-0.01912 -7.5e-4,-0.0072 -2.96e-4,-0.01004 -3.53e-4,-0.01468 -2.48e-4,-0.006 7.2e-5,-0.01023 8e-6,-0.0155 1.31e-4,-0.0053 0.0015,-0.01081 0.0014,-0.01644 0.0016,-0.0052 -5.34e-4,-0.01291 -6.03e-4,-0.0186 -4.57e-4,-0.0066 7.6e-5,-0.0099 1.5e-5,-0.01496 1.3e-4,-0.0055 -2.32e-4,-0.01627 -3.01e-4,-0.02186 -1.42e-4,-0.009 -9.8e-5,-0.0077 -1.45e-4,-0.01155 -7.3e-5,-0.0056 0.001,-0.01085 9.7e-4,-0.01641 0.0011,-0.0054 -8e-5,-0.01125 -1.5e-4,-0.01691 -9e-6,-0.0055 1.5e-4,-0.01068 8.1e-5,-0.01628 2.16e-4,-0.0052 4.62e-4,-0.01087 3.9e-4,-0.01663 5.33e-4,-0.0052 7.8e-5,-0.01121 6e-6,-0.01702 1.5e-4,-0.0053 4.89e-4,-0.01052 4.18e-4,-0.01625 5.58e-4,-0.005 -1.48e-4,-0.01183 -2.22e-4,-0.01775 -7.1e-5,-0.0056 7.75e-4,-0.01105 7.05e-4,-0.01666 8.44e-4,-0.0055 -4.93e-4,-0.01332 -5.64e-4,-0.019 -4.13e-4,-0.0069 1.36e-4,-0.0095 7.4e-5,-0.01443 1.88e-4,-0.0053 -6.31e-4,-0.01346 -7.04e-4,-0.01925 -5.48e-4,-0.0069 0.0016,-0.009 0.0016,-0.01396 0.0017,-0.005 -1.41e-4,-0.01197 -2.17e-4,-0.01797 -6.1e-5,-0.0056 -1.43e-4,-0.0113 -2.14e-4,-0.01695 -7.2e-5,-0.0057 -2.06e-4,-0.01229 -2.78e-4,-0.01795 -1.3e-4,-0.0063 0.0024,-0.01015 0.0023,-0.01549 0.0024,-0.0053 3.3e-4,-0.01091 2.56e-4,-0.01676 4.03e-4,-0.0052 -2.5e-5,-0.01174 -1.01e-4,-0.01768 5.4e-5,-0.0056 -5.95e-4,-0.01287 -6.69e-4,-0.01859 -5.15e-4,-0.0066 -6.9e-4,-0.01312 -7.57e-4,-0.01833 -6.17e-4,-0.0075 9e-6,-0.0094 -5.2e-5,-0.01416 5.8e-5,-0.0056 -1.72e-4,-0.01158 -2.47e-4,-0.01735 -9.6e-5,-0.0057 -2.31e-4,-0.01163 -3.04e-4,-0.01732 -1.57e-4,-0.0059 -2.57e-4,-0.01158 -3.3e-4,-0.0172 -1.84e-4,-0.0059 -1.64e-4,-0.0121 -2.36e-4,-0.0177 -8.9e-5,-0.0063 -6.41e-4,-0.0133 -7.12e-4,-0.01872 -5.64e-4,-0.0074 -1.06e-4,-0.0097 -1.7e-4,-0.01465 -5.3e-5,-0.0057 3.45e-4,-0.0113 2.69e-4,-0.01705 4.19e-4,-0.0056 -3.02e-4,-0.01196 -3.78e-4,-0.01776 -2.24e-4,-0.006 -6.3e-4,-0.01274 -7.04e-4,-0.01836 -5.52e-4,-0.0067 5.78e-4,-0.01026 5.09e-4,-0.0155 6.39e-4,-0.0056 2.1e-4,-0.01104 1.33e-4,-0.01687 2.85e-4,-0.0053 -3.57e-4,-0.01235 -4.36e-4,-0.01831 -2.73e-4,-0.006 -5.23e-4,-0.01211 -5.97e-4,-0.01773 -4.47e-4,-0.0063 -5.22e-4,-0.01259 -5.95e-4,-0.01806 -4.45e-4,-0.0069 0.0023,-0.01025 0.0022,-0.01547 0.0024,-0.0057 2.18e-4,-0.01153 1.4e-4,-0.01738 2.95e-4,-0.0057 2.41e-4,-0.01112 1.63e-4,-0.01696 3.18e-4,-0.0054 8.48e-4,-0.01122 7.68e-4,-0.01719 9.27e-4,-0.0053 -2.64e-4,-0.01274 -3.46e-4,-0.01878 -1.77e-4,-0.0062 -1.86e-4,-0.01494 -2.62e-4,-0.02051 -9.8e-5,-0.0083 8.54e-4,-0.008 7.93e-4,-0.01257 8.92e-4,-0.0051 1.2e-5,-0.01196 -7.1e-5,-0.01811 9.8e-5,-0.0056 -4.87e-4,-0.01276 -5.67e-4,-0.01868 -4.01e-4,-0.0064 -2.02e-4,-0.01195 -2.77e-4,-0.01746 -1.28e-4,-0.0064 -7.6e-5,-0.01088 -1.51e-4,-0.01638 -6e-6,-0.0057 -6.03e-4,-0.0138 -6.84e-4,-0.01966 -5.13e-4,-0.0072 -1.69e-4,-0.01037 -2.4e-4,-0.0155 -1.08e-4,-0.0059 5.29e-4,-0.01097 4.49e-4,-0.01676 6.05e-4,-0.0054 0.0013,-0.01146 0.0012,-0.0175 0.0014,-0.0054 0.0023,-0.01203 0.0022,-0.01808 0.0024,-0.0058 6.8e-5,-0.01133 -1.3e-5,-0.0172 1.48e-4,-0.0056 7.15e-4,-0.01098 6.32e-4,-0.01697 7.94e-4,-0.0052 -3.9e-4,-0.01294 -4.76e-4,-0.01912 -2.96e-4,-0.0062 9.91e-4,-0.01051 9.12e-4,-0.01617 0.0011,-0.0053 -5.64e-4,-0.01324 -6.5e-4,-0.01937 -4.71e-4,-0.0065 4.8e-5,-0.01071 -3e-5,-0.01624 1.19e-4,-0.0056 -1.78e-4,-0.01712 -2.62e-4,-0.0231 -6.9e-5,-0.0093 5.7e-4,-0.0072 5.12e-4,-0.01139 5.99e-4,-0.0052 0.0013,-0.01225 0.0013,-0.01847 0.0014,-0.0057 9.49e-4,-0.01053 8.65e-4,-0.01648 0.001,-0.005 -3.79e-4,-0.01331 -4.69e-4,-0.01964 -2.81e-4,-0.0063 -1.56e-4,-0.01131 -2.36e-4,-0.01697 -7.8e-5,-0.0059 -1.81e-4,-0.01187 -2.65e-4,-0.01776 -9.7e-5,-0.006 -5.36e-4,-0.01263 -6.2e-4,-0.01848 -4.48e-4,-0.0065 0.0014,-0.01081 0.0013,-0.01639 0.0015,-0.0057 8.27e-4,-0.01073 7.4e-4,-0.01674 9.08e-4,-0.005 -2.75e-4,-0.01303 -3.66e-4,-0.01936 -1.76e-4,-0.0061 -1.45e-4,-0.01149 -2.29e-4,-0.01726 -6.3e-5,-0.0059 0.0019,-0.01114 0.0018,-0.01706 0.002,-0.0055 9.54e-4,-0.01188 8.64e-4,-0.01802 0.001,-0.0056 -4.02e-4,-0.01279 -4.9e-4,-0.01883 -3.09e-4,-0.0064 -5.63e-4,-0.01235 -6.46e-4,-0.01802 -4.79e-4,-0.0066 -8.6e-5,-0.01099 -1.68e-4,-0.01656 -1e-5,-0.0058 4.97e-4,-0.01122 4.1e-4,-0.01718 5.82e-4,-0.0054 -3.35e-4,-0.01354 -4.26e-4,-0.01969 -2.34e-4,-0.0067 0.0015,-0.01085 0.0014,-0.01635 0.0016,-0.0058 -1.59e-4,-0.01192 -2.48e-4,-0.0179 -7.1e-5,-0.0059 -2.67e-4,-0.01303 -3.56e-4,-0.01896 -1.73e-4,-0.0067 1.85e-4,-0.01049 1.02e-4,-0.01602 2.59e-4,-0.0055 -7.1e-4,-0.01448 -8.02e-4,-0.0206 -6.05e-4,-0.0074 3.5e-4,-0.0097 2.72e-4,-0.01487 4.12e-4,-0.0055 -2.52e-4,-0.01261 -3.45e-4,-0.01876 -1.55e-4,-0.0061 7.07e-4,-0.01091 6.19e-4,-0.01674 7.89e-4,-0.0054 -8.57e-4,-0.01479 -9.5e-4,-0.02097 -7.47e-4,-0.0075 -1.87e-4,-0.01093 -2.65e-4,-0.01605 -1.17e-4,-0.0064 -3.57e-4,-0.0129 -4.44e-4,-0.0186 -2.66e-4,-0.0069 6.01e-4,-0.01061 5.18e-4,-0.01605 6.74e-4,-0.0058 -6.45e-4,-0.01667 -7.38e-4,-0.0227 -5.27e-4,-0.009 -4.8e-5,-0.0088 -1.15e-4,-0.01315 -4e-6,-0.0059 3.5e-4,-0.01185 2.58e-4,-0.0178 4.41e-4,-0.0059 -3.75e-4,-0.01268 -4.67e-4,-0.01865 -2.79e-4,-0.0064 5.89e-4,-0.01035 5.01e-4,-0.01604 6.67e-4,-0.0053 0.0014,-0.01187 0.0013,-0.01816 0.0015,-0.0055 -5.2e-4,-0.01352 -6.17e-4,-0.01971 -4.14e-4,-0.0067 0.0014,-0.01075 0.0014,-0.01632 0.0015,-0.0057 0.0012,-0.01181 0.0011,-0.01789 0.0013,-0.0057 -1.62e-4,-0.0121 -2.58e-4,-0.01816 -6.5e-5,-0.0059 -1.15e-4,-0.01178 -2.09e-4,-0.01775 -2.2e-5,-0.0059 -2.46e-4,-0.01213 -3.41e-4,-0.01812 -1.49e-4,-0.006 -1.13e-4,-0.01173 -2.07e-4,-0.01764 -2.1e-5,-0.0059 -5.72e-4,-0.01287 -6.67e-4,-0.01884 -4.71e-4,-0.0066 3.08e-4,-0.01065 2.18e-4,-0.01629 3.9e-4,-0.0055 -1.68e-4,-0.01228 -2.67e-4,-0.01845 -6.5e-5,-0.0059 -1.27e-4,-0.01186 -2.24e-4,-0.01783 -3.2e-5,-0.0059 8.66e-4,-0.01064 7.7e-4,-0.01662 9.55e-4,-0.0051 -6.65e-4,-0.0146 -7.69e-4,-0.02099 -5.44e-4,-0.0072 -3e-5,-0.01042 -1.17e-4,-0.01577 4.4e-5,-0.0058 0.0015,-0.0119 0.0014,-0.01794 0.0016,-0.0058 6.04e-4,-0.01174 5.06e-4,-0.01777 7.01e-4,-0.0058 -5.08e-4,-0.01362 -6.08e-4,-0.01967 -3.99e-4,-0.0069 -4.47e-4,-0.01218 -5.36e-4,-0.01763 -3.59e-4,-0.0068 -2.04e-4,-0.0111 -2.96e-4,-0.01662 -1.2e-4,-0.006 -2.42e-4,-0.01212 -3.4e-4,-0.01806 -1.43e-4,-0.0061 -3.56e-4,-0.01208 -4.53e-4,-0.01794 -2.59e-4,-0.0062 0.0011,-0.01087 0.001,-0.01671 0.0012,-0.0054 -2.09e-4,-0.01245 -3.13e-4,-0.01868 -1e-4,-0.006 -6.5e-5,-0.01165 -1.65e-4,-0.0176 3.3e-5,-0.0058 -5.62e-4,-0.01496 -6.63e-4,-0.02099 -4.43e-4,-0.0079 -1.62e-4,-0.01 -2.46e-4,-0.01494 -9.4e-5,-0.0059 -3.17e-4,-0.01218 -4.17e-4,-0.01813 -2.15e-4,-0.0061 9.58e-4,-0.01114 8.59e-4,-0.01699 0.0011,-0.0056 -4.78e-4,-0.01293 -5.83e-4,-0.01907 -3.66e-4,-0.0064 -5.29e-4,-0.01332 -6.26e-4,-0.01905 -4.25e-4,-0.0072 -8.5e-5,-0.01057 -1.76e-4,-0.0159 -5e-6,-0.0059 -1.82e-4,-0.0119 -2.85e-4,-0.01787 -8e-5,-0.0059 4.27e-4,-0.01094 3.24e-4,-0.01689 5.23e-4,-0.0053 -2.13e-4,-0.01254 -3.21e-4,-0.01881 -10e-5,-0.0059 -2.17e-4,-0.0174 -3.2e-4,-0.02335 -8.2e-5,-0.0096 1.59e-4,-0.008 8.8e-5,-0.01211 1.96e-4,-0.0058 -3.28e-4,-0.01382 -4.33e-4,-0.01982 -2.12e-4,-0.0071 1.61e-4,-0.01014 6.8e-5,-0.01547 2.4e-4,-0.0056 4.03e-4,-0.01138 2.96e-4,-0.01749 5.08e-4,-0.0054 -2.45e-4,-0.0125 -3.54e-4,-0.01872 -1.32e-4,-0.006 8.4e-5,-0.0114 -1.9e-5,-0.01731 1.85e-4,-0.0057 -2.94e-4,-0.01231 -4.01e-4,-0.01838 -1.83e-4,-0.006 -4.14e-4,-0.01272 -5.18e-4,-0.01859 -3.06e-4,-0.0066 8.73e-4,-0.01118 7.74e-4,-0.01678 9.66e-4,-0.0059 -4.54e-4,-0.0132 -5.6e-4,-0.01914 -3.41e-4,-0.0068 -4.1e-5,-0.01071 -1.39e-4,-0.01619 4.7e-5,-0.0057 2.78e-4,-0.01141 1.71e-4,-0.01742 3.82e-4,-0.0055 -1.89e-4,-0.0122 -2.99e-4,-0.01832 -7.6e-5,-0.0059 0.002,-0.0116 0.0019,-0.01754 0.0021,-0.0057 0.0022,-0.01134 0.0021,-0.01735 0.0023,-0.0055 -8.9e-5,-0.01209 -2e-4,-0.01825 2.5e-5,-0.0058 -2.55e-4,-0.01208 -3.64e-4,-0.01807 -1.45e-4,-0.006 8.85e-4,-0.01087 7.78e-4,-0.01675 9.86e-4,-0.0053 -2.18e-4,-0.0124 -3.31e-4,-0.0186 -1e-4,-0.0059 -2.09e-4,-0.0118 -3.17e-4,-0.01771 -1.01e-4,-0.0059 -8.2e-5,-0.01159 -1.9e-4,-0.01749 2.5e-5,-0.0058 0.0018,-0.0108 0.0016,-0.01677 0.0019,-0.0051 0.0019,-0.0115 0.0018,-0.01779 0.002,-0.0052 -2.78e-4,-0.01275 -3.95e-4,-0.01902 -1.54e-4,-0.006 -4.25e-4,-0.0139 -5.33e-4,-0.01972 -3.04e-4,-0.0074 -2.29e-4,-0.01127 -3.25e-4,-0.01641 -1.41e-4,-0.0066 -7.4e-5,-0.01089 -1.78e-4,-0.01644 2.3e-5,-0.0057 1.5e-5,-0.01152 -9.7e-5,-0.01747 1.25e-4,-0.0056 -6.48e-4,-0.01335 -7.62e-4,-0.01936 -5.24e-4,-0.0068 -4.91e-4,-0.0147 -5.94e-4,-0.02013 -3.73e-4,-0.0084 1.11e-4,-0.0087 2.4e-5,-0.01326 1.71e-4,-0.0055 5.39e-4,-0.01106 4.23e-4,-0.0171 6.51e-4,-0.0052 -1.97e-4,-0.01235 -3.16e-4,-0.01856 -7.3e-5,-0.0058 -3.47e-4,-0.0121 -4.6e-4,-0.01798 -2.32e-4,-0.0061 6.68e-4,-0.01034 5.57e-4,-0.01609 7.69e-4,-0.0051 1.88e-4,-0.012 6.7e-5,-0.01825 3.13e-4,-0.0055 -3.51e-4,-0.01651 -4.68e-4,-0.02253 -2.03e-4,-0.0088 -2.54e-4,-0.009 -3.39e-4,-0.01332 -1.96e-4,-0.006 -3.57e-4,-0.01245 -4.69e-4,-0.01821 -2.41e-4,-0.0065 -7.96e-4,-0.01298 -9.04e-4,-0.01851 -6.81e-4,-0.0071 -6.88e-4,-0.01222 -7.91e-4,-0.01741 -5.86e-4,-0.0071 1.49e-4,-0.0098 4.6e-5,-0.01504 2.36e-4,-0.0054 -3.44e-4,-0.01313 -4.63e-4,-0.01916 -2.14e-4,-0.0065 5.89e-4,-0.01 4.8e-4,-0.01544 6.83e-4,-0.0052 -4.59e-4,-0.01278 -5.81e-4,-0.01893 -3.28e-4,-0.0061 -2.87e-4,-0.01168 -4e-4,-0.01734 -1.74e-4,-0.0061 1.52e-4,-0.01074 3.8e-5,-0.01643 2.59e-4,-0.0054 3.49e-4,-0.01111 2.28e-4,-0.01713 4.67e-4,-0.0052 3.32e-4,-0.01136 2.08e-4,-0.01748 4.56e-4,-0.0052 3.51e-4,-0.01144 2.28e-4,-0.01754 4.74e-4,-0.0053 -5.1e-4,-0.01295 -6.33e-4,-0.019 -3.77e-4,-0.0064 -6.28e-4,-0.01227 -7.4e-4,-0.01777 -5.13e-4,-0.0066 -3.53e-4,-0.01448 -4.62e-4,-0.01984 -2.27e-4,-0.0083 2.31e-4,-0.0088 1.38e-4,-0.01337 2.97e-4,-0.0056 0.0011,-0.01068 9.61e-4,-0.01653 0.0012,-0.0051 3.96e-4,-0.0114 2.7e-4,-0.01752 5.22e-4,-0.0052 -3.84e-4,-0.01241 -5.09e-4,-0.01846 -2.52e-4,-0.006 -4.32e-4,-0.01221 -5.5e-4,-0.01786 -3.1e-4,-0.0063 7.23e-4,-0.0097 6.09e-4,-0.01521 8.21e-4,-0.005 -3.4e-4,-0.0126 -4.68e-4,-0.01874 -2.01e-4,-0.0059 0.0015,-0.01031 0.0014,-0.01595 0.0017,-0.0051 -2.01e-4,-0.01206 -3.29e-4,-0.01814 -6.8e-5,-0.0057 -3.52e-4,-0.01319 -4.74e-4,-0.01896 -2.18e-4,-0.0068 0.0011,-0.009 0.001,-0.01419 0.0012,-0.0048 -1.7e-4,-0.0122 -3.01e-4,-0.01838 -3e-5,-0.0056 5.79e-4,-0.01047 4.56e-4,-0.01624 6.95e-4,-0.005 -1.1e-5,-0.01173 -1.41e-4,-0.01781 1.24e-4,-0.0054 0.0011,-0.01054 9.49e-4,-0.0164 0.0012,-0.0049 0.0017,-0.0119 0.0016,-0.018 0.0018,-0.0055 4.1e-5,-0.01122 -8.5e-5,-0.01704 1.66e-4,-0.0054 -7.86e-4,-0.01519 -9.12e-4,-0.02101 -6.31e-4,-0.008 -3.03e-4,-0.0093 -4.01e-4,-0.01382 -2.28e-4,-0.0059 -2.7e-4,-0.01127 -3.92e-4,-0.01685 -1.5e-4,-0.0058 -8.6e-4,-0.01347 -9.84e-4,-0.0191 -7.21e-4,-0.0071 2.45e-4,-0.0095 1.36e-4,-0.01441 3.34e-4,-0.0054 -5.15e-4,-0.01319 -6.43e-4,-0.01898 -3.73e-4,-0.0067 -2.92e-4,-0.01053 -4.06e-4,-0.01564 -1.88e-4,-0.0058 -8.69e-4,-0.01475 -9.93e-4,-0.0203 -7.22e-4,-0.0081 -5.22e-4,-0.0098 -6.21e-4,-0.01419 -4.44e-4,-0.0063 8.5e-4,-0.0095 7.3e-4,-0.01486 9.53e-4,-0.0049 -1.09e-4,-0.01174 -2.44e-4,-0.01774 3.2e-5,-0.0054 -3.54e-4,-0.01164 -4.83e-4,-0.01735 -2.22e-4,-0.0058 -3.89e-4,-0.01154 -5.14e-4,-0.01708 -2.62e-4,-0.0059 3.44e-4,-0.01008 2.2e-4,-0.01553 4.58e-4,-0.005 -3.73e-4,-0.01537 -5.08e-4,-0.02125 -2.06e-4,-0.008 -7.75e-4,-0.01083 -8.75e-4,-0.01523 -6.87e-4,-0.0069 -3.44e-4,-0.01133 -4.57e-4,-0.01624 -2.35e-4,-0.0066 0.0019,-0.0096 0.0018,-0.01464 0.002,-0.0052 3.03e-4,-0.01078 1.7e-4,-0.01656 4.34e-4,-0.005 10e-7,-0.01126 -1.35e-4,-0.0171 1.39e-4,-0.0053 -4.25e-4,-0.0129 -5.57e-4,-0.01859 -2.78e-4,-0.0065 7.88e-4,-0.0089 6.7e-4,-0.01396 8.85e-4,-0.0048 4.9e-4,-0.01168 3.5e-4,-0.01763 6.37e-4,-0.0054 -2.71e-4,-0.01338 -4.03e-4,-0.019 -1.2e-4,-0.007 -4.16e-4,-0.01438 -5.3e-4,-0.0192 -2.83e-4,-0.0087 -3.99e-4,-0.0086 -4.92e-4,-0.0125 -3.38e-4,-0.006 4.28e-4,-0.0096 3.03e-4,-0.0149 5.41e-4,-0.0049 7.38e-4,-0.01057 5.99e-4,-0.01641 8.76e-4,-0.0048 -8.22e-4,-0.01324 -9.63e-4,-0.01911 -6.61e-4,-0.0065 8e-5,-0.0096 -4e-5,-0.0146 1.85e-4,-0.0052 -2.82e-4,-0.01709 -4.17e-4,-0.0227 -9.7e-5,-0.0094 -4.58e-4,-0.01116 -5.43e-4,-0.01469 -3.86e-4,-0.0082 -6.06e-4,-0.0093 -7.05e-4,-0.01341 -5.31e-4,-0.0062 -3.86e-4,-0.01068 -5.1e-4,-0.01577 -2.68e-4,-0.0058 -1.5e-5,-0.01039 -1.44e-4,-0.01567 1.08e-4,-0.0053 -4.89e-4,-0.01152 -6.23e-4,-0.01703 -3.49e-4,-0.0058 -1.26e-4,-0.01033 -2.55e-4,-0.01559 -3e-6,-0.0053 4.34e-4,-0.01079 2.98e-4,-0.01629 5.69e-4,-0.0053 -7.49e-4,-0.01503 -8.85e-4,-0.02052 -5.78e-4,-0.0081 -1.91e-4,-0.0081 -2.91e-4,-0.01218 -1.24e-4,-0.0054 -5.89e-4,-0.01378 -7.24e-4,-0.01919 -4.3e-4,-0.0074 -2.99e-4,-0.009 -4.09e-4,-0.01341 -2.12e-4,-0.0055 -7.86e-4,-0.01208 -9.19e-4,-0.0174 -6.44e-4,-0.0063 -3.27e-4,-0.01008 -4.5e-4,-0.01497 -2.14e-4,-0.0056 -5.91e-4,-0.01131 -7.23e-4,-0.01659 -4.54e-4,-0.0059 3.63e-4,-0.01012 2.34e-4,-0.01523 4.84e-4,-0.0053 -7.9e-4,-0.01428 -9.27e-4,-0.01966 -6.23e-4,-0.0077 -1.91e-4,-0.0083 -2.96e-4,-0.01248 -1.16e-4,-0.0053 0.0019,-0.01021 0.0017,-0.01555 0.002,-0.005 -6.43e-4,-0.01233 -7.84e-4,-0.01782 -4.87e-4,-0.0062 9.96e-4,-0.009 8.71e-4,-0.01383 0.0011,-0.0048 5.94e-4,-0.01042 4.5e-4,-0.016 7.37e-4,-0.0048 -3.63e-4,-0.01138 -5.06e-4,-0.01693 -2.11e-4,-0.0055 9.73e-4,-0.0093 8.39e-4,-0.01454 0.0011,-0.0046 7.7e-4,-0.01093 6.23e-4,-0.01657 9.23e-4,-0.005 -3.07e-4,-0.01104 -4.48e-4,-0.01643 -1.62e-4,-0.0054 0.0014,-0.0102 0.0012,-0.01537 0.0015,-0.0052 4e-6,-0.01025 -1.36e-4,-0.01557 1.42e-4,-0.005 -3.48e-4,-0.0109 -4.9e-4,-0.01627 -2.02e-4,-0.0053 -5.44e-4,-0.0123 -6.82e-4,-0.01748 -3.91e-4,-0.0065 -9.09e-4,-0.01284 -0.001,-0.01741 -7.72e-4,-0.0077 -3.85e-4,-0.0084 -4.91e-4,-0.01243 -3.08e-4,-0.0055 -8.38e-4,-0.01172 -9.73e-4,-0.01675 -6.93e-4,-0.0063 -9.52e-4,-0.01172 -0.0011,-0.01636 -8.21e-4,-0.0068 -4.4e-4,-0.0112 -5.58e-4,-0.01556 -3.23e-4,-0.0068 -3.68e-4,-0.009 -4.85e-4,-0.01332 -2.71e-4,-0.0054 0.0011,-0.0093 9.79e-4,-0.01437 0.0012,-0.0046 -3.99e-4,-0.0113 -5.46e-4,-0.01674 -2.4e-4,-0.0054 -4.87e-4,-0.01071 -6.23e-4,-0.01571 -3.48e-4,-0.0056 -2.67e-4,-0.01406 -4.01e-4,-0.01895 -1.01e-4,-0.008 0.0021,-0.0072 0.002,-0.01093 0.0021,-0.005 -1.87e-4,-0.01028 -3.3e-4,-0.01546 -4.3e-5,-0.005 -4.15e-4,-0.01055 -5.57e-4,-0.01568 -2.7e-4,-0.0053 -0.001,-0.01267 -0.0011,-0.01766 -8.47e-4,-0.0069 -1.53e-4,-0.0082 -2.69e-4,-0.0124 -6.3e-5,-0.005 -5.44e-4,-0.0125 -6.87e-4,-0.01761 -3.79e-4,-0.0066 -3.91e-4,-0.009 -5.11e-4,-0.01329 -2.88e-4,-0.0053 -9.6e-5,-0.0096 -2.34e-4,-0.01451 3.5e-5,-0.0049 0.0015,-0.0096 0.0013,-0.01476 0.0016,-0.0047 5.92e-4,-0.0093 4.44e-4,-0.01458 7.35e-4,-0.0043 -7.76e-4,-0.01248 -9.29e-4,-0.01788 -5.96e-4,-0.0061 -4.71e-4,-0.01294 -5.98e-4,-0.01738 -3.22e-4,-0.0077 -6.2e-4,-0.01056 -7.24e-4,-0.01419 -5.24e-4,-0.0072 -1.95e-4,-0.0077 -3.06e-4,-0.0116 -1.17e-4,-0.0049 5.14e-4,-0.0091 3.71e-4,-0.01403 6.49e-4,-0.0044 -1.54e-4,-0.01032 -3.06e-4,-0.01558 4e-6,-0.0048 9.79e-4,-0.0087 8.33e-4,-0.01375 0.0011,-0.0041 -3.77e-4,-0.0109 -5.34e-4,-0.01628 -2.07e-4,-0.005 -2.65e-4,-0.0097 -4.08e-4,-0.01461 -1.24e-4,-0.0049 6.9e-5,-0.0094 -7.5e-5,-0.01433 2.08e-4,-0.0046 5.98e-4,-0.0093 4.5e-4,-0.01433 7.43e-4,-0.0044 -5.18e-4,-0.01081 -6.71e-4,-0.01597 -3.52e-4,-0.0052 -1.38e-4,-0.0093 -2.78e-4,-0.01404 -4e-6,-0.0048 1.85e-4,-0.0093 3.9e-5,-0.01417 3.26e-4,-0.0045 -8.45e-4,-0.01158 -9.95e-4,-0.01661 -6.75e-4,-0.0058 -2.14e-4,-0.0086 -3.44e-4,-0.01292 -1e-4,-0.0048 -7.9e-4,-0.01121 -9.36e-4,-0.01605 -6.28e-4,-0.0058 2.89e-4,-0.0081 1.59e-4,-0.01242 3.99e-4,-0.0045 -8.78e-4,-0.0137 -0.001,-0.01867 -6.85e-4,-0.0073 8.57e-4,-0.0059 7.5e-4,-0.0094 9.14e-4,-0.004 0.0016,-0.0091 0.0014,-0.01426 0.0017,-0.0039 -7.19e-4,-0.01234 -8.8e-4,-0.01756 -5.25e-4,-0.006 3.47e-4,-0.0075 2.2e-4,-0.0116 4.46e-4,-0.0042 9.05e-4,-0.0094 7.5e-4,-0.0144 0.0011,-0.0043 7.5e-5,-0.0095 -7.9e-5,-0.01444 2.3e-4,-0.0045 5.8e-5,-0.0093 -9.3e-5,-0.01418 2.09e-4,-0.0045 0.0013,-0.0087 0.0011,-0.01355 0.0014,-0.0041 -5.61e-4,-0.0108 -7.19e-4,-0.01581 -3.85e-4,-0.0052 -1.09e-4,-0.0086 -2.5e-4,-0.01297 2e-5,-0.0045 -4.56e-4,-0.01344 -6.08e-4,-0.01821 -2.61e-4,-0.0073 -6.1e-4,-0.0077 -7.17e-4,-0.01101 -5.34e-4,-0.0053 -3.02e-4,-0.0092 -4.41e-4,-0.01348 -1.69e-4,-0.005 -2.95e-4,-0.0093 -4.38e-4,-0.01378 -1.53e-4,-0.0049 -9.43e-4,-0.01101 -0.0011,-0.01547 -7.8e-4,-0.006 -3.45e-4,-0.008 -4.71e-4,-0.0119 -2.39e-4,-0.0047 -4.8e-5,-0.0089 -1.96e-4,-0.01344 9.6e-5,-0.0045 -7.11e-4,-0.0105 -8.62e-4,-0.01511 -5.46e-4,-0.0054 3.88e-4,-0.008 2.52e-4,-0.01216 5.06e-4,-0.0044 -3.68e-4,-0.01302 -5.21e-4,-0.01764 -1.72e-4,-0.007 -4.5e-4,-0.0074 -5.58e-4,-0.01072 -3.73e-4,-0.0051 -1.1e-4,-0.0085 -2.5e-4,-0.01267 2e-5,-0.0045 -8.07e-4,-0.01337 -9.57e-4,-0.01787 -6.08e-4,-0.0074 -4.59e-4,-0.0068 -5.6e-4,-0.0098 -3.98e-4,-0.0049 -6.26e-4,-0.011 -7.69e-4,-0.01524 -4.64e-4,-0.0061 4.1e-5,-0.007 -8.1e-5,-0.01057 1.31e-4,-0.0043 -4.09e-4,-0.01132 -5.62e-4,-0.01586 -2.27e-4,-0.0059 -7.45e-4,-0.0087 -8.7e-4,-0.01242 -6.29e-4,-0.0053 -5.85e-4,-0.0092 -7.19e-4,-0.01319 -4.51e-4,-0.0053 1.18e-4,-0.0073 -1.7e-5,-0.01129 2.31e-4,-0.004 1.11e-4,-0.0092 -4.7e-5,-0.0138 2.76e-4,-0.0044 3.25e-4,-0.0079 1.75e-4,-0.01228 4.65e-4,-0.0038 0.002,-0.0089 0.0018,-0.01355 0.0021,-0.0041 1.67e-4,-0.0085 10e-6,-0.01304 3.23e-4,-0.004 -2.68e-4,-0.009 -4.24e-4,-0.01347 -1.06e-4,-0.0043 -9.04e-4,-0.01237 -0.0011,-0.01671 -7.08e-4,-0.0067 3.3e-4,-0.0059 2.22e-4,-0.0089 3.9e-4,-0.0041 -1.7e-4,-0.0086 -3.24e-4,-0.01301 -1.5e-5,-0.0042 6.04e-4,-0.0078 4.51e-4,-0.01212 7.49e-4,-0.0037 6.88e-4,-0.0087 5.26e-4,-0.01322 8.54e-4,-0.004 0.0013,-0.0076 0.0011,-0.01201 0.0014,-0.0034 9.43e-4,-0.0084 7.76e-4,-0.01301 0.0011,-0.0036 -9.91e-4,-0.01277 -0.0012,-0.01732 -7.7e-4,-0.0066 -2.85e-4,-0.0063 -3.93e-4,-0.0092 -2.18e-4,-0.0044 -2.41e-4,-0.0081 -3.9e-4,-0.01217 -9.7e-5,-0.0041 -0.001,-0.01117 -0.0012,-0.01537 -8.49e-4,-0.006 7.49e-4,-0.0057 6.3e-4,-0.0089 8.24e-4,-0.0036 7.3e-4,-0.0079 5.67e-4,-0.0123 8.9e-4,-0.0035 -3.27e-4,-0.0089 -4.92e-4,-0.01335 -1.5e-4,-0.0041 -4.88e-4,-0.01054 -6.42e-4,-0.01465 -3.05e-4,-0.0056 -2.49e-4,-0.0068 -3.74e-4,-0.01009 -1.52e-4,-0.0042 -6.87e-4,-0.0096 -8.4e-4,-0.01363 -5.17e-4,-0.0051 -4.43e-4,-0.0081 -5.77e-4,-0.0116 -3.17e-4,-0.0047 -3.74e-4,-0.0077 -5.16e-4,-0.01139 -2.41e-4,-0.0042 -3.66e-4,-0.0081 -5.18e-4,-0.01205 -2.15e-4,-0.0041 -2.62e-4,-0.0079 -4.14e-4,-0.01181 -1.13e-4,-0.004 2.8e-5,-0.0075 -1.27e-4,-0.01154 1.77e-4,-0.0037 -1.56e-4,-0.0083 -3.17e-4,-0.01244 1.1e-5,-0.004 -3.99e-4,-0.0082 -5.54e-4,-0.01213 -2.41e-4,-0.0041 -8e-5,-0.0077 -2.33e-4,-0.01157 6.9e-5,-0.0039 0.0014,-0.0066 0.0012,-0.01054 0.0015,-0.003 3.21e-4,-0.0086 1.47e-4,-0.01295 5.11e-4,-0.0038 9.3e-4,-0.0066 7.71e-4,-0.01056 0.0011,-0.003 -4.77e-4,-0.0091 -6.52e-4,-0.01342 -2.79e-4,-0.0041 -4.4e-4,-0.0079 -5.92e-4,-0.01169 -2.86e-4,-0.0041 -3.2e-5,-0.0072 -1.83e-4,-0.01088 1.08e-4,-0.0037 -6.09e-4,-0.01071 -7.7e-4,-0.01463 -4.05e-4,-0.0057 9.4e-5,-0.0054 -2.4e-5,-0.0083 1.68e-4,-0.0036 -0.001,-0.0105 -0.0012,-0.01441 -8.45e-4,-0.0055 0.0015,-0.0052 0.0014,-0.0081 0.0016,-0.0034 -6.47e-4,-0.0094 -8.13e-4,-0.01337 -4.52e-4,-0.0047 -7.58e-4,-0.0086 -8.95e-4,-0.0119 -6.11e-4,-0.0051 9.6e-5,-0.0057 -3.2e-5,-0.0087 1.89e-4,-0.0035 0.0016,-0.0072 0.0015,-0.01101 0.0018,-0.0034 -5.52e-4,-0.01046 -7.19e-4,-0.01436 -3.4e-4,-0.0054 -8.2e-4,-0.0087 -9.4e-4,-0.01146 -6.94e-4,-0.0057 -5.52e-4,-0.0061 -6.65e-4,-0.0087 -4.71e-4,-0.0042 -2.2e-5,-0.0063 -1.69e-4,-0.0097 1.06e-4,-0.0033 4.97e-4,-0.0071 3.32e-4,-0.01092 6.61e-4,-0.0033 6.29e-4,-0.0067 4.64e-4,-0.01045 7.88e-4,-0.003 -6.63e-4,-0.01046 -8.35e-4,-0.01435 -4.38e-4,-0.0053 -2.17e-4,-0.0054 -3.37e-4,-0.0081 -1.36e-4,-0.0036 -1.48e-4,-0.0068 -3.07e-4,-0.01037 5e-6,-0.0033 -3.98e-4,-0.0075 -5.63e-4,-0.01118 -2.26e-4,-0.0037 0.0015,-0.0065 0.0013,-0.01 0.0016,-0.0033 -3.31e-4,-0.0073 -4.98e-4,-0.01098 -1.59e-4,-0.0035 -4.02e-4,-0.0072 -5.62e-4,-0.01064 -2.39e-4,-0.0036 2.97e-4,-0.0062 1.39e-4,-0.0096 4.41e-4,-0.0031 1.12e-4,-0.0066 -5.8e-5,-0.01026 2.81e-4,-0.003 -4.5e-4,-0.0077 -6.24e-4,-0.01143 -2.59e-4,-0.0037 8.14e-4,-0.0059 6.58e-4,-0.0092 9.5e-4,-0.0029 0.0016,-0.0067 0.0014,-0.01036 0.0018,-0.003 -1.17e-4,-0.0071 -2.91e-4,-0.01067 6.4e-5,-0.0032 3.42e-4,-0.0059 1.75e-4,-0.0093 4.96e-4,-0.0027 -5.95e-4,-0.0082 -7.76e-4,-0.01193 -3.84e-4,-0.0039 -2.99e-4,-0.0061 -4.49e-4,-0.0091 -1.64e-4,-0.0033 2.59e-4,-0.0064 9.4e-5,-0.0097 4.2e-4,-0.0032 -4.83e-4,-0.0071 -6.53e-4,-0.01051 -3.03e-4,-0.0035 -8.56e-4,-0.0093 -0.001,-0.01248 -6.51e-4,-0.0053 0.0012,-0.0041 0.0011,-0.0064 0.0012,-0.0031 -8.8e-5,-0.0063 -2.6e-4,-0.0096 8.3e-5,-0.0029 -8.16e-4,-0.0091 -9.91e-4,-0.01242 -5.93e-4,-0.0047 -3.32e-4,-0.0055 -4.59e-4,-0.0079 -2.35e-4,-0.0036 -1.78e-4,-0.0059 -3.34e-4,-0.0088 -3.6e-5,-0.0031 -1.47e-4,-0.0061 -3.15e-4,-0.0092 1.6e-5,-0.0029 -8e-4,-0.01114 -9.74e-4,-0.01437 -5.37e-4,-0.0062 2.5e-5,-0.003 -5.9e-5,-0.0045 2.2e-5,-0.003 -5.74e-4,-0.0072 -7.45e-4,-0.01032 -3.84e-4,-0.0036 -2.77e-4,-0.0056 -4.3e-4,-0.0084 -1.4e-4,-0.003 -5.66e-4,-0.0068 -7.35e-4,-0.0098 -3.85e-4,-0.0034 -3.73e-4,-0.0058 -5.3e-4,-0.0086 -2.26e-4,-0.0031 5.38e-4,-0.0051 3.72e-4,-0.0081 6.84e-4,-0.0025 0.0018,-0.0056 0.0017,-0.0089 0.002,-0.0024 -0.001,-0.01073 -0.0012,-0.01407 -7.18e-4,-0.0056 -3.22e-4,-0.0044 -4.15e-4,-0.0061 -2.84e-4,-0.0037 -9.45e-4,-0.0076 -0.0011,-0.01015 -7.73e-4,-0.0046 -2.81e-4,-0.0057 -4.01e-4,-0.0078 -1.79e-4,-0.0039 -2.4e-5,-0.0044 -1.63e-4,-0.0068 7.7e-5,-0.0027 -5.7e-5,-0.0059 -2.33e-4,-0.0089 1.23e-4,-0.0028 -7.2e-4,-0.0069 -8.93e-4,-0.0098 -5.24e-4,-0.0035 -1.69e-4,-0.0048 -3.17e-4,-0.0073 -4.6e-5,-0.0027 5.64e-4,-0.0046 3.89e-4,-0.0075 7.17e-4,-0.002 -6.92e-4,-0.0098 -8.87e-4,-0.01301 -4.03e-4,-0.005 -7.62e-4,-0.0069 -8.64e-4,-0.0086 -6.54e-4,-0.0052 -4.4e-5,-0.0028 -1.39e-4,-0.0044 -3e-5,-0.0026 9.64e-4,-0.0042 7.9e-4,-0.007 0.0011,-0.0018 -5.08e-4,-0.0092 -7.1e-4,-0.01237 -2.19e-4,-0.0045 -3.66e-4,-0.0047 -4.8e-4,-0.0065 -2.85e-4,-0.0034 -7.34e-4,-0.0065 -8.8e-4,-0.0088 -5.69e-4,-0.0039 -1.65e-4,-0.0039 -2.93e-4,-0.0059 -8.1e-5,-0.0025 -1.44e-4,-0.0053 -3.16e-4,-0.008 3.1e-5,-0.0026 -2.38e-4,-0.0051 -4.08e-4,-0.0077 -7.1e-5,-0.0025 -6.37e-4,-0.0081 -8.1e-4,-0.01073 -3.98e-4,-0.0044 -6.03e-4,-0.0045 -7.11e-4,-0.0061 -5.28e-4,-0.0033 3.29e-4,-0.0041 1.87e-4,-0.0063 4.39e-4,-0.0024 -2.16e-4,-0.0051 -3.89e-4,-0.0077 -4.2e-5,-0.0024 -2.6e-5,-0.0046 -1.97e-4,-0.0071 1.37e-4,-0.0021 0.0018,-0.0049 0.0016,-0.0076 0.002,-0.0022 0.0017,-0.0047 0.0016,-0.0074 0.0019,-0.0021 -5.36e-4,-0.0063 -7.23e-4,-0.009 -3.12e-4,-0.003 -1.55e-4,-0.004 -3.05e-4,-0.0062 -3.2e-5,-0.0023 -3.06e-4,-0.0049 -4.83e-4,-0.0074 -1.27e-4,-0.0023 0.0017,-0.0044 0.0015,-0.0068 0.0018,-0.0021 -4.1e-4,-0.0058 -5.97e-4,-0.0084 -1.94e-4,-0.0028 2.61e-4,-0.0041 1.05e-4,-0.0062 3.94e-4,-0.0023 0.001,-0.0035 8.26e-4,-0.0059 0.0012,-0.0015 -0.0011,-0.0091 -0.0013,-0.01186 -7.57e-4,-0.0047 0.0013,-0.0019 0.0012,-0.0029 0.0013,-0.0021 -8.8e-5,-0.0043 -2.75e-4,-0.0067 9.4e-5,-0.0019 -5.49e-4,-0.0063 -7.41e-4,-0.0087 -3.05e-4,-0.0032 -1.37e-4,-0.0033 -2.77e-4,-0.005 -4.3e-5,-0.0021 -5.02e-4,-0.0049 -6.88e-4,-0.0071 -3.03e-4,-0.0024 -7.67e-4,-0.0054 -9.38e-4,-0.0074 -5.71e-4,-0.003 -7.2e-4,-0.0048 -8.65e-4,-0.0066 -5.7e-4,-0.0031 -6.29e-4,-0.0044 -7.69e-4,-0.006 -4.98e-4,-0.0028 -6e-5,-0.0031 -2.09e-4,-0.0048 4.6e-5,-0.0018 -6.52e-4,-0.0051 -8.45e-4,-0.0073 -4.25e-4,-0.0025 -2.3e-5,-0.0034 -1.82e-4,-0.0051 1.06e-4,-0.0019 -5.16e-4,-0.0046 -7.06e-4,-0.0067 -3.08e-4,-0.0022 -3.62e-4,-0.0038 -5.34e-4,-0.0057 -1.97e-4,-0.002 -5.5e-4,-0.0054 -7.31e-4,-0.0073 -3.25e-4,-0.0029 -3.13e-4,-0.0039 -4.49e-4,-0.0053 -1.93e-4,-0.0025 -3.26e-4,-0.0051 -4.79e-4,-0.0068 -1.42e-4,-0.0032 3.19e-4,-0.002 1.97e-4,-0.0033 3.64e-4,-0.0016 -7.9e-5,-0.0036 -2.78e-4,-0.0057 1.19e-4,-0.0015 1.82e-4,-0.0034 -1.8e-5,-0.0055 3.76e-4,-0.0014 -8.79e-4,-0.0054 -0.0011,-0.0075 -6.06e-4,-0.0026 -8.81e-4,-0.0051 -0.001,-0.0065 -7.01e-4,-0.0033 -6.47e-4,-0.0034 -7.49e-4,-0.0044 -5.74e-4,-0.0027 -2.78e-4,-0.0031 -4.1e-4,-0.0044 -1.74e-4,-0.0021 5.05e-4,-0.0022 3.44e-4,-0.0037 6.11e-4,-0.0011 -9.59e-4,-0.0059 -0.0012,-0.008 -6.43e-4,-0.0028 -3.54e-4,-0.0035 -4.69e-4,-0.0046 -2.53e-4,-0.0025 0.001,-0.0024 8.77e-4,-0.0036 0.0011,-0.0017 -3.65e-4,-0.0035 -5.48e-4,-0.0052 -1.75e-4,-0.0016 -9e-4,-0.0054 -0.0011,-0.007 -6.44e-4,-0.003 -6.14e-4,-0.0046 -7.1e-4,-0.0054 -4.91e-4,-0.0034 4.87e-4,-9.37e-4 4.17e-4,-0.0016 4.4e-4,-0.0014 -1.52e-4,-0.0033 -3.39e-4,-0.005 4.5e-5,-0.0015 -9.33e-4,-0.0074 -0.0011,-0.009 -5.88e-4,-0.0043 2.1e-5,-1.11e-4 1.2e-5,-1.96e-4 -1.31e-4,-0.0015 -5.05e-4,-0.0034 -6.75e-4,-0.0049 -3.15e-4,-0.0017 9.3e-5,-0.0025 -5.9e-5,-0.0038 2.24e-4,-0.0014 -1.14e-4,-0.0027 -2.88e-4,-0.0042 5.7e-5,-0.0012 -3.76e-4,-0.0031 -5.54e-4,-0.0046 -1.82e-4,-0.0014 0.0014,-0.0014 0.0012,-0.0028 0.0015,-5.74e-4 1.3e-4,-0.0032 -9.9e-5,-0.005 3.93e-4,-9.91e-4 -8.25e-4,-0.0047 -0.001,-0.0062 -5.33e-4,-0.0023 -4.29e-4,-0.0021 -5.29e-4,-0.0029 -3.71e-4,-0.0016 3.78e-4,-0.0018 2.35e-4,-0.0029 4.73e-4,-0.001 -0.001,-0.005 -0.0012,-0.0064 -6.99e-4,-0.0026 -4.14e-4,-0.0019 -4.82e-4,-0.0024 -4e-4,-0.0018 4.47e-4,-8.85e-4 3.27e-4,-0.0018 4.78e-4,-6.42e-4 -4.25e-4,-0.0031 -6.34e-4,-0.0046 -1.69e-4,-0.0012 -1.07e-4,-0.002 -2.69e-4,-0.0031 3.6e-5,-9.2e-4 -3.67e-4,-0.0032 -5.48e-4,-0.0045 -1.31e-4,-0.0016 -6.84e-4,-0.0052 -8.13e-4,-0.0061 -4.23e-4,-0.0034 0.0013,8.12e-4 0.0013,8.12e-4 0.0011,-5.48e-4 -6.96e-4,-0.0034 -8.95e-4,-0.0047 -4.17e-4,-0.0015 -1.06e-4,-0.0014 -2.28e-4,-0.0022 -3.3e-5,-9.04e-4 -9.68e-4,-0.0049 -0.0011,-0.0059 -6.34e-4,-0.0027 6.3e-5,-9.5e-5 5.2e-5,-1.6e-4 -7.6e-5,-9.57e-4 -3.26e-4,-0.002 -4.83e-4,-0.0029 -1.64e-4,-9.61e-4 -8.51e-4,-0.0051 -0.001,-0.006 -5.42e-4,-0.0032 7.81e-4,3.29e-4 7.81e-4,3.29e-4 6.34e-4,-5.43e-4 -3.66e-4,-0.0019 -5.1e-4,-0.0027 -2.12e-4,-9.9e-4 2.26e-4,-8e-4 8.9e-5,-0.0016 2.97e-4,-3.63e-4 -1.92e-4,-0.0019 -3.93e-4,-0.003 3.6e-5,-5.77e-4 0.002,-0.0012 0.0018,-0.0021 0.0021,-5.08e-4 -7.68e-4,-0.0031 -0.001,-0.0043 -3.93e-4,-0.0012 6.68e-4,-9.21e-4 5.51e-4,-0.0014 6.99e-4,-7.48e-4 -8.71e-4,-0.0051 -0.0011,-0.006 -4.63e-4,-0.0034 8.47e-4,8.16e-4 8.47e-4,8.16e-4 6.98e-4,2.06e-4 -3.43e-4,-0.0013 -4.95e-4,-0.0019 -2.18e-4,-7.51e-4 0.001,-0.0013 8.3e-4,-0.0019 0.0011,-8.52e-4 -7.98e-4,-0.0039 -0.0011,-0.0047 -2.67e-4,-0.0022 2.41e-4,2.52e-4 2.41e-4,2.52e-4 3.1e-5,-3.59e-4 0.0018,-0.0011 0.0016,-0.0017 0.0017,-0.0014 -0.0017,-0.0042 -0.0023,-0.0053 -4.69e-4,-0.0016 -1.14e-4,-5.7e-4 -1.14e-4,-5.7e-4 -2.3e-4,-7.55e-4 -3.8e-4,-7.1e-4 -4.94e-4,-8.8e-4 -4.59e-4,-8.06e-4 7.6e-4,-6.93e-4 4.61e-4,-0.001 2.2e-4,-0.0012 -0.0027,-0.003 -0.0038,-0.0036 -2.82e-4,-8.95e-4 -2.6e-5,-5.5e-5 -2.6e-5,-5.5e-5 -2.49e-4,-1.86e-4 -6.2e-4,-7.37e-4 -7.99e-4,-8.19e-4 -4.99e-4,-6.48e-4 -9.36e-4,-0.0012 -0.0011,-0.0012 -5.81e-4,-0.001 -1.44e-4,-5.44e-4 6.5e-5,-5.05e-4 -8e-6,-8.25e-4 3.24e-4,5.69e-4 4.65e-4,6.04e-4 4.5e-5,8.7e-5 -1.51e-4,-0.0026 -1.51e-4,-0.0026 -1.12e-4,-0.0025 -1.29e-4,0.0011 -9.5e-5,0.0011 -3.05e-4,-0.0013 8.86e-4,0.0014 8.87e-4,0.0014 5.79e-4,5.1e-5 -8.46e-4,-8.04e-4 -8.46e-4,-8.04e-4 0,0 4.57e-4,0.001 4.57e-4,0.001 0.0026,-0.0018 0.0059,-0.0027 0.0087,-0.0044 0.0034,-8.53e-4 0.0056,-0.0034 0.0085,-0.005 0.0029,-0.0017 0.0066,-0.0026 0.0097,-0.004 0.0036,-9.16e-4 0.0061,-0.003 0.0093,-0.0043 0.0032,-0.0015 0.0064,-0.0032 0.0099,-0.0045 0.0032,-0.0018 0.0073,-0.002 0.01092,-0.0032 0.0038,-6.85e-4 0.0072,-0.0023 0.0109,-0.0034 0.0037,-0.0011 0.0085,-0.0015 0.01238,-0.0024 0.0046,-2.77e-4 0.007,-0.0036 0.01079,-0.0044 0.0037,-0.0027 0.009,-6.61e-4 0.01307,-0.0015 0.0049,3.09e-4 0.0077,-0.0017 0.01169,-0.0024 0.0042,-9.54e-4 0.009,-5.96e-4 0.01332,-0.0012 0.0047,1.86e-4 0.008,-0.0024 0.01232,-0.0029 0.0041,-0.0017 0.01006,1.66e-4 0.01462,-3.12e-4 0.0052,8.09e-4 0.0079,-0.0022 0.01218,-0.0026 0.0042,-0.0018 0.0093,-0.0062 0.01405,-0.0065 0.0045,-0.0057 0.0091,-5.11e-4 0.01371,-7.43e-4 0.0047,-1.64e-4 0.0095,-1.87e-4 0.01425,-3.44e-4 0.0048,9.2e-5 0.0094,-2.21e-4 0.01417,-3.01e-4 0.0048,-2.8e-5 0.0094,-5.88e-4 0.01417,-5.94e-4 0.0047,-4.73e-4 0.0092,-0.002 0.01402,-0.002 0.0045,-0.002 0.0099,-3.79e-4 0.01488,-2.29e-4 0.0047,-4.14e-4 0.0097,-1.33e-4 0.01457,8.7e-5 0.0048,-2.45e-4 0.01093,0.0016 0.01578,0.0019 0.0056,0.0014 0.0086,3.17e-4 0.013,6.29e-4 0.0047,1.14e-4 0.0091,-0.0014 0.01387,-0.001 0.0044,-0.0017 0.01133,0.0011 0.01631,0.0016 0.0056,6.33e-4 0.0081,-0.0041 0.01236,-0.0037 0.0046,-0.0044 0.01004,0.0012 0.01501,0.0018 0.0046,6.14e-4 0.009,-0.0014 0.01359,-6.92e-4 0.0046,-0.0019 0.0097,0.0017 0.01443,0.0025 0.0046,0.001 0.0102,0.0026 0.01456,0.0034 0.0052,0.0018 0.0081,0.002 0.01194,0.0028 0.0045,0.0014 0.0081,-5.97e-4 0.01214,2.6e-4 0.0043,-0.0013 0.009,0.0024 0.01328,0.0034 0.0042,0.0014 0.0078,0.0019 0.01167,0.0028 0.004,9.9e-4 0.0083,0.0026 0.0121,0.0036 0.0041,0.0016 0.0068,5.7e-5 0.01032,0.001 0.0037,-7.66e-4 0.0075,6.36e-4 0.01128,0.0018 0.0035,-4.53e-4 0.0071,-7.9e-4 0.01071,4.28e-4 0.0035,-0.0018 0.0095,0.0038 0.01318,0.0052 0.0043,0.0021 0.006,0.0024 0.0084,0.0034 0.0037,0.0016 0.0051,0.0022 0.0076,0.0033 0.0028,0.0013 0.0051,5.66e-4 0.0077,0.0018 0.0027,-4.9e-4 0.0057,0.0016 0.0083,0.003 0.0024,9.6e-5 0.005,-2.37e-4 0.0073,0.0013 0.0026,-0.0015 0.0055,0.004 0.0079,0.006 0.0019,0.0016 0.0034,0.0033 0.0047,0.0045 0.0019,0.0019 0.0019,-0.0012 0.0029,-3.44e-4 0.0014,0.0011 0.0036,0.0059 0.005,0.0067 6.1e-5,1.09e-4 -2.6e-4,-0.0023 -1.99e-4,-0.0022 -9e-5,-0.0019 1.43e-4,2.46e-4 4.34e-4,0.0015 -3.07e-4,-7.92e-4 6.76e-4,0.0018 8.09e-4,0.0025 4.11e-4,5.66e-4 0.0026,5.42e-4 0.0026,5.45e-4 0.0026,5.35e-4 -7.5e-5,-1.55e-4 -7.5e-5,-1.55e-4 -3.2e-5,7.2e-5 -5.27e-4,-0.0014 -4.86e-4,-0.0012 -4.6e-4,-0.001 -3.96e-4,-4.39e-4 -2.46e-4,5.96e-4 -5.49e-4,-0.0012 6.06e-4,0.0026 7.53e-4,0.0037 3.33e-4,6.28e-4 -4.2e-4,-0.0016 -3.97e-4,-0.0014 -3.44e-4,-9.87e-4 0.001,0.0031 0.0011,0.0042 7.66e-4,0.0011 -5.6e-5,-5.21e-4 -5.4e-5,-5.03e-4 5e-6,4e-5 0.0015,0.0017 0.0016,0.0024 0.0014,7.5e-4 -3.95e-4,-0.0025 -3.72e-4,-0.0022 -3.01e-4,-0.0015 -3.2e-4,5.82e-4 -1.79e-4,0.0021 -4.91e-4,-0.001 0.0022,0.0034 0.0023,0.0047 0.002,0.0011 1.47e-4,5.67e-4 1.62e-4,7.47e-4 1.57e-4,6.9e-4 7.78e-4,0.0013 8.18e-4,0.0018 7.34e-4,7.79e-4 5.82e-4,0.0015 6.19e-4,0.002 5.41e-4,9.82e-4 8.3e-4,0.0016 8.62e-4,0.002 7.94e-4,0.0011 -4.58e-4,-0.0035 -4.31e-4,-0.0032 -3.6e-4,-0.0022 2.46e-4,0.0028 3.99e-4,0.005 1.5e-5,-1.78e-4 -1.47e-4,0.0012 -7e-5,0.0023 -2.3e-4,1.2e-5 7.2e-5,0.002 1.42e-4,0.0031 -1.8e-5,6.37e-4 4.18e-4,0.0021 4.68e-4,0.0029 3.54e-4,0.0011 1.38e-4,0.0012 1.75e-4,0.0018 1.1e-4,8.18e-4 -5.38e-4,-5.36e-4 -4.9e-4,2.46e-4 -5.42e-4,-5.83e-4 -2.3e-5,0.0025 6.7e-5,0.004 -1.44e-4,4.66e-4 5.73e-4,0.0025 6.32e-4,0.0036 4.95e-4,0.0012 -4.33e-4,-0.0023 -3.93e-4,-0.0016 -3.96e-4,-0.0016 2.68e-4,0.0043 3.84e-4,0.0065 8.3e-5,9.59e-4 2.89e-4,0.002 3.36e-4,0.0029 2.4e-4,0.0011 -2.67e-4,8.67e-4 -2.22e-4,0.0018 -2.93e-4,3.68e-4 6.2e-5,-0.0028 1.26e-4,-0.0015 6.7e-5,-0.0026 -8.4e-5,0.0046 4.8e-5,0.0075 -2.89e-4,4.58e-4 2.26e-4,0.0027 2.86e-4,0.0041 1.5e-4,0.0011 -3.75e-4,-4.27e-4 -3.3e-4,5.74e-4 -3.82e-4,-5.53e-4 1.33e-4,0.0017 2.16e-4,0.0036 4.2e-5,-2.53e-4 1.12e-4,0.0034 1.87e-4,0.0052 10e-6,0.0011 2.98e-4,0.0026 3.47e-4,0.0037 2.45e-4,0.0013 -1.13e-4,0.0014 -7e-5,0.0024 -1.42e-4,6.82e-4 -1.7e-5,8.32e-4 4e-5,0.0023 -5.8e-5,-1.46e-4 0.0015,0.0049 0.0016,0.0068 0.0014,0.002 7.6e-5,0.0016 1.07e-4,0.0024 6.2e-5,0.0013 6.61e-4,0.0031 7.08e-4,0.0044 6.05e-4,0.0017 5.85e-4,0.0028 6.24e-4,0.0038 5.45e-4,0.0017 2.6e-4,0.0024 3e-4,0.0035 2.25e-4,0.0015 -4.82e-4,-1.83e-4 -4.37e-4,0.001 -4.91e-4,-4.06e-4 -3.91e-4,0.0028 -3.11e-4,0.0051 -4.83e-4,3.06e-4 1.81e-4,0.0038 2.48e-4,0.0057 9.5e-5,0.0014 -7e-5,0.0019 -2.1e-5,0.0033 -1.08e-4,8.02e-4 2.03e-4,0.0036 2.61e-4,0.0053 1.32e-4,0.0015 4.7e-5,0.0027 9.3e-5,0.0041 3e-6,0.0014 3.5e-5,0.0026 8.4e-5,0.0041 -1.1e-5,0.0012 0.0011,0.0042 0.0011,0.0058 0.001,0.0022 -1.93e-4,0.0017 -1.56e-4,0.0029 -2.12e-4,0.0011 -3.74e-4,0.0015 -3.19e-4,0.0033 -4.16e-4,2.39e-4 0.0017,0.0054 0.0018,0.0077 0.0016,0.0022 0.0014,0.0032 0.0014,0.0044 0.0014,0.0021 3.7e-5,0.0026 7.8e-5,0.0039 5e-6,0.0016 1.1e-4,0.0033 1.6e-4,0.005 5.9e-5,0.0017 0.0013,0.0033 0.0014,0.005 0.0013,0.0017 8.7e-5,0.0033 1.35e-4,0.005 4e-5,0.0017 3.2e-5,2.43e-4 8.1e-5,0.002 1.3e-5,-4.09e-4 0.0016,0.006 0.0017,0.0088 0.0015,0.0021 9e-5,0.0031 1.33e-4,0.0047 5.2e-5,0.0018 4.3e-5,0.0034 9.1e-5,0.0051 -5e-6,0.0017 -1.2e-5,0.0027 3.9e-5,0.0046 -5.5e-5,0.0012 0.002,0.0044 0.002,0.0066 0.0019,0.0019 8.2e-5,0.0035 1.29e-4,0.0053 3.7e-5,0.0018 -3.2e-5,0.0035 1.7e-5,0.0053 -7.9e-5,0.0017 -3.24e-4,0.0025 -2.73e-4,0.0045 -3.66e-4,9.3e-4 3.48e-4,0.0051 4.09e-4,0.0075 2.72e-4,0.0021 -3.1e-5,0.0011 1.4e-5,0.003 -5.3e-5,2.7e-4 0.001,0.0062 0.0011,0.009 9.36e-4,0.0024 8.29e-4,0.0046 8.72e-4,0.0064 7.82e-4,0.0027 5.6e-5,0.0032 9.6e-5,0.0049 2.6e-5,0.002 0.0025,0.0045 0.0026,0.0065 0.0025,0.0023 -5.38e-4,-2.8e-5 -4.94e-4,0.0019 -5.49e-4,-4.89e-4 5.28e-4,0.0072 6.05e-4,0.01059 4.17e-4,0.0025 0.001,0.0049 0.0011,0.0068 9.78e-4,0.0029 0.002,0.004 0.002,0.0057 0.002,0.0025 -4.7e-5,1.27e-4 -4e-6,0.0021 -5.8e-5,-3.63e-4 8.08e-4,0.0077 8.83e-4,0.01111 6.98e-4,0.0028 8.38e-4,0.0044 8.79e-4,0.0063 8e-4,0.0026 4.5e-5,0.0039 8.7e-5,0.0059 7e-6,0.0021 1.17e-4,0.0045 1.65e-4,0.0068 6.8e-5,0.0023 8.7e-4,0.0051 9.17e-4,0.0074 8.19e-4,0.0027 -6.6e-5,0.0031 -2.4e-5,0.0051 -9.7e-5,0.0016 7.35e-4,0.0058 7.88e-4,0.0085 6.7e-4,0.0027 -3.45e-4,0.0031 -3.02e-4,0.0052 -3.76e-4,0.0016 8.76e-4,0.0055 9.31e-4,0.0082 8.14e-4,0.0024 -1.54e-4,0.0041 -1.08e-4,0.0064 -1.95e-4,0.002 3.07e-4,0.0055 3.57e-4,0.008 2.51e-4,0.0026 0.002,0.005 0.0021,0.0073 0.002,0.0027 2.1e-5,0.0044 6.4e-5,0.0067 -1.9e-5,0.0023 -4.8e-4,0.0015 -4.33e-4,0.004 -5.07e-4,9.7e-5 4e-5,0.0069 1.08e-4,0.01059 -4.9e-5,0.0023 -2.86e-4,0.0042 -2.39e-4,0.0069 -3.3e-4,0.0019 0.0013,0.0061 0.0013,0.009 0.0012,0.0029 -1.4e-4,0.0042 -9.8e-5,0.0065 -1.76e-4,0.0022 1.05e-4,0.0054 1.53e-4,0.0082 5.2e-5,0.0026 -2.69e-4,0.0039 -2.24e-4,0.0065 -3.06e-4,0.0018 -2.64e-4,0.0027 -2.12e-4,0.0057 -3.05e-4,3.78e-4 -9.9e-5,0.0065 -3.6e-5,0.01023 -1.77e-4,0.002 -5.26e-4,0.0039 -4.76e-4,0.0069 -5.7e-4,0.0014 1.4e-5,0.0053 6.9e-5,0.0086 -4.5e-5,0.0018 -1.44e-4,0.0011 -9.2e-5,0.0042 -1.75e-4,-7.5e-4 8.72e-4,0.0093 9.44e-4,0.01371 7.69e-4,0.003 1.26e-4,0.0051 1.66e-4,0.0076 8.8e-5,0.0027 -2.33e-4,0.0044 -1.9e-4,0.0071 -2.71e-4,0.002 1.98e-4,0.0064 2.47e-4,0.0095 1.42e-4,0.0029 0.0012,0.0057 0.0013,0.0084 0.0012,0.003 -6.36e-4,0.0023 -5.94e-4,0.005 -6.6e-4,7.64e-4 6.51e-4,0.0084 7.09e-4,0.0123 5.73e-4,0.0034 0.0026,0.0053 0.0026,0.0079 0.0025,0.0029 9.73e-4,0.0057 0.001,0.0085 9.31e-4,0.003 0.002,0.0058 0.0021,0.0086 0.002,0.003 -3.3e-4,0.0045 -2.88e-4,0.0074 -3.66e-4,0.0022 2e-5,0.0064 6.7e-5,0.0097 -3.2e-5,0.0028 7.9e-5,0.0059 1.22e-4,0.0089 3.5e-5,0.0029 -5.5e-5,0.0053 -1.2e-5,0.0083 -9.5e-5,0.0025 8.14e-4,0.0065 8.59e-4,0.0097 7.66e-4,0.0031 -4.11e-4,0.0043 -3.7e-4,0.0072 -4.44e-4,0.0019 1.09e-4,0.0071 1.57e-4,0.01065 5.3e-5,0.003 -3.8e-5,0.005 4e-6,0.008 -7.5e-5,0.0023 3.9e-4,0.007 4.36e-4,0.01046 3.39e-4,0.0032 7.1e-5,0.0059 1.11e-4,0.0089 3.3e-5,0.003 0.0014,0.0063 0.0014,0.0094 0.0014,0.0031 0.0023,0.0067 0.0023,0.0098 0.0022,0.0035 7e-4,0.0068 7.38e-4,0.0097 6.61e-4,0.0038 -1.64e-4,0.0051 -1.28e-4,0.0079 -1.93e-4,0.0028 1.25e-4,0.0068 1.67e-4,0.01012 8e-5,0.0032 0.0014,0.0073 0.0015,0.01047 0.0014,0.0038 7.73e-4,0.0065 8.08e-4,0.0094 7.38e-4,0.0037 -3.91e-4,0.0013 -3.55e-4,0.0043 -4.06e-4,1.89e-4 -1.57e-4,0.0088 -9.9e-5,0.01357 -2.32e-4,0.0028 -1.23e-4,0.0053 -8.1e-5,0.0089 -1.61e-4,0.0022 8e-5,0.0076 1.26e-4,0.01141 2.8e-5,0.0032 9.88e-4,0.0078 0.001,0.01111 9.43e-4,0.0041 0.0016,0.0064 0.0017,0.0093 0.0016,0.0037 4.23e-4,0.0066 4.59e-4,0.0097 3.87e-4,0.0035 -5.26e-4,0.0028 -4.89e-4,0.0061 -5.48e-4,9.15e-4 9.56e-4,0.01008 0.001,0.01469 8.86e-4,0.004 -4.7e-4,0.0046 -4.35e-4,0.0077 -4.96e-4,0.0023 5.81e-4,0.0085 6.24e-4,0.01247 5.3e-4,0.0038 -1.51e-4,0.0044 -1.16e-4,0.0076 -1.77e-4,0.0021 5.5e-5,0.0082 9.9e-5,0.01228 4e-6,0.0034 5.64e-4,0.0071 6.01e-4,0.01055 5.26e-4,0.0035 0.0012,0.0082 0.0013,0.01162 0.0012,0.0043 -3.3e-5,0.0059 -10e-7,0.009 -6.1e-5,0.0034 0.0013,0.0081 0.0014,0.01173 0.0013,0.0042 -1.07e-4,0.006 -7.4e-5,0.0092 -1.36e-4,0.0033 9.4e-5,0.0074 1.31e-4,0.01105 5.4e-5,0.0036 4.3e-5,0.007 7.9e-5,0.01057 7e-6,0.0035 -3.59e-4,0.0062 -3.23e-4,0.0098 -3.91e-4,0.0029 2.79e-4,0.008 3.18e-4,0.01196 2.36e-4,0.0037 -1.08e-4,0.003 -7.3e-5,0.0066 -1.3e-4,8.2e-4 0.0018,0.01131 0.0018,0.01637 0.0017,0.0045 -6.21e-4,0.0032 -5.9e-4,0.0065 -6.38e-4,0.0015 0.0015,0.01032 0.0016,0.01508 0.0015,0.0042 2.91e-4,0.0071 3.22e-4,0.0105 2.6e-4,0.0039 -1.87e-4,0.006 -1.54e-4,0.0096 -2.16e-4,0.0029 0.0014,0.0093 0.0014,0.01343 0.0013,0.0044 6.37e-4,0.0076 6.67e-4,0.01101 6.07e-4,0.0043 -1.58e-4,0.0059 -1.27e-4,0.0094 -1.83e-4,0.0031 -4.9e-5,0.0076 -1.3e-5,0.01172 -8.7e-5,0.0034 -1.16e-4,0.0068 -8.1e-5,0.01082 -1.49e-4,0.003 1.11e-4,0.0085 1.47e-4,0.01268 7.2e-5,0.0039 2e-5,0.0066 5.2e-5,0.01042 -1e-5,0.0032 6.13e-4,0.0084 6.48e-4,0.01256 5.75e-4,0.0039 -2.95e-4,0.0058 -2.63e-4,0.0096 -3.22e-4,0.0026 -4.27e-4,0.0044 -3.91e-4,0.0089 -4.57e-4,7.91e-4 8.4e-5,0.01066 1.28e-4,0.01611 2.8e-5,0.0038 0.0014,0.009 0.0014,0.01294 0.0014,0.0046 0.002,0.0084 0.002,0.01203 0.0019,0.0048 -4e-4,0.0046 -3.73e-4,0.0081 -4.18e-4,0.0023 -2.56e-4,0.0078 -2.2e-4,0.01261 -2.95e-4,0.0028 -5.56e-4,0.0051 -5.22e-4,0.0096 -5.85e-4,0.0013 8.9e-5,0.01064 1.29e-4,0.01597 3.9e-5,0.004 0.0014,0.0085 0.0015,0.01253 0.0014,0.0044 0.0026,0.0084 0.0026,0.01225 0.0025,0.0045 -3.33e-4,0.0045 -3.06e-4,0.0083 -3.52e-4,0.002 6.24e-4,0.01095 6.6e-4,0.01602 5.78e-4,0.0046 0.0017,0.008 0.0018,0.0118 0.0017,0.0044 9.44e-4,0.009 9.72e-4,0.01289 9.15e-4,0.0048 1.5e-5,0.0074 4.1e-5,0.0111 -7e-6,0.004 8.5e-5,0.0083 1.13e-4,0.01247 5.7e-5,0.0042 0.0018,0.0085 0.0018,0.0126 0.0018,0.0043 3.2e-5,0.0079 5.9e-5,0.01193 6e-6,0.004 9.9e-5,0.0085 1.27e-4,0.01276 7e-5,0.0042 -4e-6,0.0075 2.3e-5,0.0117 -2.9e-5,0.0037 3.78e-4,0.0092 4.06e-4,0.01362 3.47e-4,0.0044 -5.4e-5,0.0079 -2.9e-5,0.01202 -7.9e-5,0.004 4.62e-4,0.0093 4.89e-4,0.0136 4.33e-4,0.0047 -3.62e-4,0.0069 -3.37e-4,0.01096 -3.83e-4,0.0035 -3.11e-4,0.0077 -2.84e-4,0.01235 -3.38e-4,0.0033 8.6e-5,0.0095 1.14e-4,0.0143 5.4e-5,0.0043 2.42e-4,0.0089 2.67e-4,0.01313 2.16e-4,0.0045 -2.05e-4,0.0034 -1.81e-4,0.0075 -2.19e-4,9.75e-4 8.3e-5,0.01195 1.17e-4,0.01793 3.9e-5,0.0043 1.33e-4,0.0087 1.57e-4,0.01301 1.09e-4,0.0044 0.0011,0.0095 0.0011,0.01381 0.0011,0.0049 5.29e-4,0.0087 5.51e-4,0.01271 5.07e-4,0.0047 4.1e-5,0.0083 6.4e-5,0.01252 1.9e-5,0.0044 2.99e-4,0.0092 3.22e-4,0.01358 2.76e-4,0.0047 -5e-4,0.0056 -4.78e-4,0.0099 -5.17e-4,0.0025 -4.98e-4,0.0075 -4.7e-4,0.01291 -5.25e-4,0.0023 5.45e-4,0.0114 5.72e-4,0.01689 5.12e-4,0.0047 9.56e-4,0.0088 9.77e-4,0.01307 9.35e-4,0.0046 2e-5,0.0085 4.1e-5,0.01289 -10e-7,0.0043 -2.62e-4,0.008 -2.41e-4,0.01254 -2.83e-4,0.0037 1.98e-4,0.01 2.21e-4,0.0148 1.72e-4,0.0047 0.0014,0.0096 0.0014,0.014 0.0014,0.005 -1.41e-4,0.0078 -1.21e-4,0.01203 -1.58e-4,0.0041 -1.96e-4,0.0083 -1.75e-4,0.01307 -2.16e-4,0.0038 3.42e-4,0.01031 3.63e-4,0.01522 3.17e-4,0.0049 -1.82e-4,0.0058 -1.63e-4,0.01016 -1.96e-4,0.0026 -5.74e-4,0.0086 -5.5e-4,0.01412 -5.98e-4,0.0029 0.0013,0.01103 0.0013,0.01645 0.0013,0.0047 2.63e-4,0.0093 2.81e-4,0.01381 2.44e-4,0.0048 0.0021,0.0095 0.0021,0.01404 0.0021,0.005 2.72e-4,0.0093 2.89e-4,0.0137 2.55e-4,0.0049 -1.74e-4,0.0085 -1.57e-4,0.01295 -1.91e-4,0.0043 4.3e-5,0.0096 6.1e-5,0.01444 2.4e-5,0.0047 5.77e-4,0.01009 5.94e-4,0.01474 5.57e-4,0.0052 -1.57e-4,0.0063 -1.41e-4,0.01066 -1.69e-4,0.003 0.0013,0.01134 0.0013,0.01687 0.0012,0.0049 0.0015,0.0095 0.0015,0.0141 0.0014,0.0049 0.0026,0.0095 0.0026,0.01407 0.0026,0.0049 -6.5e-5,0.009 -5e-5,0.01358 -8e-5,0.0046 -3.18e-4,0.0085 -3.03e-4,0.0133 -3.33e-4,0.004 1.2e-4,0.01036 1.37e-4,0.01547 1.01e-4,0.0048 -6.63e-4,0.0071 -6.48e-4,0.01185 -6.76e-4,0.0033 3.52e-4,0.01158 3.69e-4,0.0171 3.32e-4,0.0051 0.0012,0.01046 0.0013,0.01505 0.0012,0.0056 -2.42e-4,0.0053 -2.29e-4,0.0097 -2.5e-4,0.0025 -9.6e-5,0.01087 -7.9e-5,0.01682 -1.16e-4,0.0041 -1.72e-4,0.0097 -1.58e-4,0.01482 -1.86e-4,0.0044 0.0013,0.01044 0.0013,0.01547 0.0013,0.0051 0.0013,0.01025 0.0013,0.01496 0.0013,0.0054 0.0022,0.0097 0.0022,0.01425 0.0022,0.0052 0.0011,0.0099 0.0012,0.0146 0.0011,0.0053 -2.4e-4,0.0087 -2.29e-4,0.01343 -2.5e-4,0.0045 3.44e-4,0.01062 3.56e-4,0.01571 3.3e-4,0.0052 6e-5,0.0095 7.1e-5,0.0143 5e-5,0.0049 4e-6,0.0097 1.4e-5,0.01462 -7e-6,0.0049 -4.86e-4,0.0072 -4.76e-4,0.01218 -4.95e-4,0.0032 -3.51e-4,0.0072 -3.39e-4,0.01299 -3.63e-4,0.002 3.2e-4,0.01302 3.32e-4,0.01944 3.04e-4,0.0051 0.002,0.01082 0.002,0.01571 0.002,0.0057 5.3e-5,0.0092 6.2e-5,0.01386 4.5e-5,0.005 -3.52e-4,0.007 -3.43e-4,0.01196 -3.59e-4,0.003 1.69e-4,0.01211 1.79e-4,0.01808 1.57e-4,0.0051 1.06e-4,0.01003 1.13e-4,0.01497 9.8e-5,0.0051 -2.64e-4,0.0092 -2.56e-4,0.01414 -2.72e-4,0.0045 -3.44e-4,0.0097 -3.36e-4,0.01493 -3.51e-4,0.0045 3.93e-4,0.01118 4.01e-4,0.0165 3.85e-4,0.0054 4.11e-4,0.01014 4.17e-4,0.015 4.04e-4,0.0053 8.73e-4,0.01006 8.79e-4,0.01497 8.66e-4,0.0052 1.9e-5,0.01 2.4e-5,0.01495 1.3e-5,0.0051 0.0024,0.01026 0.0024,0.01534 0.0024,0.0052 -3.62e-4,0.0053 -3.57e-4,0.01038 -3.66e-4,0.0019 2.75e-4,0.01359 2.81e-4,0.02028 2.67e-4,0.0053 7.91e-4,0.01116 7.95e-4,0.01618 7.86e-4,0.0059 2.14e-4,0.0098 2.17e-4,0.01457 2.09e-4,0.0053 2.33e-4,0.01034 2.37e-4,0.01536 2.29e-4,0.0053 -4.97e-4,0.0075 -4.94e-4,0.0125 -5e-4,0.0034 -1.06e-4,0.01137 -1.02e-4,0.01738 -1.11e-4,0.0047 3.5e-5,0.01078 3.8e-5,0.01616 3.1e-5,0.0052 8.39e-4,0.01055 8.41e-4,0.01571 8.37e-4,0.0053 -2.39e-4,0.0094 -2.38e-4,0.01449 -2.41e-4,0.0047 9e-5,0.01105 9.1e-5,0.0165 8.8e-5,0.0053 2e-6,0.01027 3e-6,0.01542 10e-7,0.0052 -7e-5,0.0096 -6.9e-5,0.01477 -7.2e-5,0.0046 -6.82e-4,0.0079 -6.82e-4,0.01342 -6.83e-4,0.0032 -1.92e-4,0.01205 -1.92e-4,0.01831 -1.93e-4,0.0049 -3.69e-4,0.0084 -3.69e-4,0.01382 -3.69e-4,0.0037 1.45e-4,0.01223 1.44e-4,0.01825 1.46e-4,0.0054 -3.2e-5,0.01031 -3.3e-5,0.0155 -3.1e-5,0.0052 9.78e-4,0.01169 9.77e-4,0.01698 9.78e-4,0.006 -6.38e-4,0.0069 -6.39e-4,0.01184 -6.37e-4,0.0034 -3e-5,0.01238 -3.2e-5,0.01863 -2.8e-5,0.0052 -7.2e-4,0.0075 -7.22e-4,0.01281 -7.18e-4,0.0032 -1.6e-4,0.01237 -1.63e-4,0.01872 -1.56e-4,0.0051 -1.53e-4,0.01051 -1.56e-4,0.01594 -1.5e-4,0.0051 8.24e-4,0.01116 8.21e-4,0.01659 8.27e-4,0.0055 -5.07e-4,0.009 -5.11e-4,0.01425 -5.04e-4,0.0044 9.5e-5,0.01174 9e-5,0.01755 1e-4,0.0054 -3.28e-4,0.0078 -3.33e-4,0.01314 -3.25e-4,0.0035 -3.55e-4,0.01026 -3.61e-4,0.01653 -3.5e-4,0.0038 9.9e-5,0.0124 9.3e-5,0.01853 1.05e-4,0.0055 -1.06e-4,0.01039 -1.12e-4,0.01571 -1.01e-4,0.0052 0.0013,0.01165 0.0013,0.01712 0.0013,0.0059 1.18e-4,0.01053 1.12e-4,0.01568 1.24e-4,0.0056 9.4e-5,0.01079 8.7e-5,0.01611 1e-4,0.0055 -1.56e-4,0.01038 -1.63e-4,0.01573 -1.51e-4,0.0052 0.0016,0.01203 0.0016,0.01756 0.0016,0.0061 7.12e-4,0.01069 7.05e-4,0.01579 7.18e-4,0.0058 -1.76e-4,0.01013 -1.83e-4,0.01539 -1.69e-4,0.0052 -3.46e-4,0.01026 -3.54e-4,0.01583 -3.38e-4,0.0049 2.37e-4,0.01182 2.28e-4,0.01755 2.47e-4,0.0057 6.14e-4,0.0109 6.05e-4,0.01624 6.22e-4,0.0056 3.79e-4,0.01145 3.7e-4,0.01683 3.88e-4,0.0059 4.37e-4,0.01112 4.28e-4,0.01637 4.45e-4,0.0059 0.0015,0.01191 0.0015,0.01718 0.0016,0.0064 7e-5,0.01021 6.1e-5,0.01523 7.9e-5,0.0056 -3.48e-4,0.007 -3.58e-4,0.01242 -3.41e-4,0.0029 3.69e-4,0.01415 3.55e-4,0.02095 3.85e-4,0.0059 -5.1e-5,0.01058 -6.2e-5,0.0159 -4e-5,0.0055 -2.89e-4,0.01039 -3e-4,0.01593 -2.78e-4,0.0051 -1.03e-4,0.01 -1.16e-4,0.01575 -9e-5,0.0045 -3.91e-4,0.0109 -4.04e-4,0.01693 -3.78e-4,0.0048 9.72e-4,0.01297 9.58e-4,0.0189 9.87e-4,0.0063 1.8e-5,0.01034 5e-6,0.01551 3e-5,0.0056 2.88e-4,0.01152 2.74e-4,0.01707 3.01e-4,0.0058 0.001,0.0117 0.001,0.01712 0.001,0.0061 -2.05e-4,0.0091 -2.18e-4,0.0144 -1.94e-4,0.0046 0.0013,0.01275 0.0012,0.0188 0.0013,0.006 0.0014,0.01134 0.0014,0.0167 0.0014,0.006 3.42e-4,0.01132 3.27e-4,0.01671 3.55e-4,0.006 -7e-6,0.01085 -2.2e-5,0.01626 7e-6,0.0056 0.0024,0.01149 0.0024,0.01708 0.0024,0.0058 9.4e-5,0.01123 7.8e-5,0.01674 1.09e-4,0.0058 6.85e-4,0.01159 6.69e-4,0.01712 7.02e-4,0.006 -1.76e-4,0.01058 -1.93e-4,0.01603 -1.6e-4,0.0054 2.2e-4,0.01164 2.02e-4,0.01737 2.38e-4,0.0058 1.36e-4,0.01135 1.18e-4,0.01692 1.53e-4,0.0058 8e-5,0.01118 6.1e-5,0.01675 9.7e-5,0.0057 -1.92e-4,0.0063 -2.11e-4,0.01195 -1.79e-4,0.0023 -4.98e-4,0.01339 -5.23e-4,0.02069 -4.69e-4,0.0048 -1.37e-4,0.01189 -1.58e-4,0.01795 -1.16e-4,0.0055 3.06e-4,0.01209 2.86e-4,0.01783 3.28e-4,0.0061 0.001,0.01156 9.93e-4,0.01702 0.001,0.0061 -4.27e-4,0.0093 -4.48e-4,0.0148 -4.1e-4,0.0046 -2.53e-4,0.01029 -2.76e-4,0.01651 -2.32e-4,0.0043 0.0013,0.01417 0.0013,0.02057 0.0013,0.0066 -1.04e-4,0.01033 -1.24e-4,0.01557 -8.6e-5,0.0056 0.0023,0.0116 0.0023,0.01735 0.0024,0.0058 -4.07e-4,0.009 -4.3e-4,0.01463 -3.89e-4,0.0041 0.0011,0.01404 0.0011,0.02054 0.0011,0.0064 1.18e-4,0.01102 9.5e-5,0.01639 1.38e-4,0.0059 0.0016,0.01151 0.0016,0.01714 0.0016,0.0059 -5.5e-4,0.0089 -5.74e-4,0.01453 -5.3e-4,0.0041 0.0022,0.01323 0.0022,0.01976 0.0022,0.0059 0.0025,0.01186 0.0024,0.01754 0.0025,0.0061 2.67e-4,0.01143 2.42e-4,0.01701 2.92e-4,0.0059 -4.69e-4,0.0077 -4.95e-4,0.01332 -4.49e-4,0.0033 5.92e-4,0.01468 5.59e-4,0.02165 6.31e-4,0.0063 -1.09e-4,0.01082 -1.35e-4,0.01633 -8.5e-5,0.0056 4.32e-4,0.01237 4.03e-4,0.0182 4.61e-4,0.0062 3.2e-4,0.01165 2.92e-4,0.01717 3.46e-4,0.0062 -2.6e-4,0.01064 -2.88e-4,0.01621 -2.35e-4,0.0054 2.55e-4,0.012 2.25e-4,0.01794 2.87e-4,0.0059 -3.27e-4,0.0063 -3.56e-4,0.01205 -3.07e-4,0.0023 -5.5e-4,0.0136 -5.9e-4,0.02111 -5.04e-4,0.0048 -2.33e-4,0.01215 -2.67e-4,0.01842 -1.99e-4,0.0055 2.14e-4,0.0122 1.82e-4,0.01812 2.47e-4,0.006 -2.49e-4,0.01078 -2.8e-4,0.01645 -2.21e-4,0.0054 -1.9e-4,0.01159 -2.24e-4,0.01758 -1.56e-4,0.0055 -9e-5,0.01131 -1.23e-4,0.01725 -5.8e-5,0.0054 -5.1e-4,0.0088 -5.44e-4,0.01481 -4.81e-4,0.0037 0.0018,0.01512 0.0018,0.02199 0.0018,0.0067 0.0011,0.01204 0.001,0.0174 0.0011,0.0067 0.0012,0.01209 0.0012,0.01747 0.0013,0.0067 4.5e-5,0.01098 1.3e-5,0.01637 7.4e-5,0.006 -2.6e-5,0.01153 -6.1e-5,0.01729 8e-6,0.0058 0.0011,0.01305 0.0011,0.01889 0.0012,0.0068 -1.26e-4,0.01062 -1.6e-4,0.01599 -9.6e-5,0.0057 9.95e-4,0.01214 9.58e-4,0.01803 0.001,0.0061 -7.31e-4,0.0085 -7.68e-4,0.01426 -7.03e-4,0.0039 -5.07e-4,0.01232 -5.51e-4,0.01914 -4.59e-4,0.005 -5.59e-4,0.0082 -6e-4,0.0145 -5.26e-4,0.0029 -3.11e-4,0.01412 -3.6e-4,0.02143 -2.54e-4,0.0055 -4e-4,0.01093 -4.41e-4,0.01696 -3.62e-4,0.0051 -4.45e-4,0.01055 -4.87e-4,0.01678 -4.05e-4,0.0046 0.0013,0.01443 0.0012,0.02093 0.0013,0.0068 -1.18e-4,0.0075 -1.55e-4,0.01293 -9.2e-5,0.0037 -5.66e-4,0.01186 -6.15e-4,0.01882 -5.15e-4,0.0045 0.0019,0.01392 0.0018,0.02047 0.0019,0.0064 1.9e-5,0.01134 -2.2e-5,0.01695 5.8e-5,0.006 -8.4e-5,0.01168 -1.27e-4,0.01752 -4.3e-5,0.0059 0.0024,0.01213 0.0023,0.01801 0.0024,0.0061 0.0017,0.01159 0.0017,0.01736 0.0017,0.0059 -3.7e-4,0.01089 -4.14e-4,0.01676 -3.28e-4,0.0053 6.43e-4,0.01262 5.96e-4,0.01879 6.93e-4,0.0061 1.97e-4,0.01201 1.53e-4,0.01782 2.41e-4,0.0062 6.56e-4,0.01261 6.11e-4,0.01837 7.02e-4,0.0066 -4.89e-4,0.0098 -5.32e-4,0.0153 -4.52e-4,0.005 -4.38e-4,0.01137 -4.89e-4,0.01771 -3.89e-4,0.005 -5.56e-4,0.01152 -6.07e-4,0.01785 -5.05e-4,0.0051 -3.97e-4,0.0087 -4.48e-4,0.01497 -3.55e-4,0.0033 -2.23e-4,0.01413 -2.82e-4,0.02133 -1.55e-4,0.0057 2.69e-4,0.01221 2.19e-4,0.01822 3.21e-4,0.0061 -7.8e-5,0.01171 -1.27e-4,0.01756 -3.2e-5,0.0059 0.0018,0.01289 0.0018,0.0188 0.0019,0.0066 3.16e-4,0.0118 2.68e-4,0.01736 3.62e-4,0.0064 -4.52e-4,0.01039 -5.01e-4,0.01608 -4.09e-4,0.0053 -2.32e-4,0.0099 -2.87e-4,0.01618 -1.82e-4,0.0042 0.0025,0.01357 0.0025,0.02034 0.0026,0.0059 8.09e-4,0.01268 7.57e-4,0.0186 8.64e-4,0.0065 2.28e-4,0.01186 1.78e-4,0.01751 2.77e-4,0.0063 2.11e-4,0.01168 1.59e-4,0.01741 2.61e-4,0.0061 4.08e-4,0.01223 3.55e-4,0.01809 4.62e-4,0.0063 -2.63e-4,0.01079 -3.16e-4,0.01655 -2.13e-4,0.0054 -4.83e-4,0.0072 -5.41e-4,0.01342 -4.4e-4,0.0025 -5.85e-4,0.01372 -6.57e-4,0.02135 -5.03e-4,0.0049 7.4e-4,0.01374 6.78e-4,0.02018 8.08e-4,0.0065 7.35e-4,0.01206 6.81e-4,0.01771 7.87e-4,0.0064 -1.19e-4,0.0077 -1.74e-4,0.01336 -7.9e-5,0.0035 -1.43e-4,0.01427 -2.13e-4,0.02143 -6.1e-5,0.0059 -1.74e-4,0.01136 -2.33e-4,0.01731 -1.17e-4,0.0056 -5.92e-4,0.0104 -6.53e-4,0.01652 -5.37e-4,0.0047 1.78e-4,0.01349 1.12e-4,0.02003 2.5e-4,0.0062 5.34e-4,0.01199 4.75e-4,0.0178 5.93e-4,0.0062 -2.62e-4,0.0113 -3.21e-4,0.01712 -2.05e-4,0.0057 -6.65e-4,0.01054 -7.27e-4,0.01659 -6.08e-4,0.0049 3e-6,0.01297 -6.5e-5,0.01942 7.5e-5,0.006 2.47e-4,0.01216 1.85e-4,0.01808 3.09e-4,0.0062 -1.17e-4,0.01168 -1.78e-4,0.01752 -5.7e-5,0.0059 8.48e-4,0.01257 7.85e-4,0.0185 9.14e-4,0.0064 -6.85e-4,0.0095 -7.46e-4,0.01525 -6.33e-4,0.0047 -4.23e-4,0.01184 -4.94e-4,0.01841 -3.5e-4,0.0051 -2.05e-4,0.0126 -2.75e-4,0.01896 -1.32e-4,0.0058 -1.51e-4,0.01167 -2.17e-4,0.01766 -8.7e-5,0.0057 0.0011,0.01292 9.89e-4,0.01896 0.0011,0.0065 3.92e-4,0.01187 3.29e-4,0.01754 4.54e-4,0.0063 -5.34e-4,0.0099 -5.99e-4,0.01564 -4.77e-4,0.0048 -6.4e-4,0.01088 -7.14e-4,0.01738 -5.69e-4,0.0045 0.0026,0.01374 0.0025,0.02038 0.0027,0.0063 -1.71e-4,0.0098 -2.38e-4,0.01556 -1.13e-4,0.0047 -1.01e-4,0.01319 -1.77e-4,0.01974 -1.9e-5,0.006 8.09e-4,0.0125 7.4e-4,0.01841 8.8e-4,0.0064 -3.1e-5,0.01162 -9.9e-5,0.01734 3.4e-5,0.0061 4.97e-4,0.01268 4.27e-4,0.01855 5.7e-4,0.0066 -1.26e-4,0.01127 -1.93e-4,0.0169 -6.3e-5,0.0059 5.22e-4,0.01256 4.5e-4,0.01849 5.96e-4,0.0064 7.89e-4,0.01264 7.19e-4,0.01834 8.6e-4,0.0068 -3.39e-4,0.0099 -4.07e-4,0.01539 -2.82e-4,0.0051 -1.63e-4,0.01265 -2.42e-4,0.01899 -8.1e-5,0.0059 6.2e-5,0.0122 -1.2e-5,0.01814 1.37e-4,0.0062 0.0011,0.0117 0.001,0.01752 0.0012,0.006 -4.89e-4,0.0096 -5.64e-4,0.01554 -4.23e-4,0.0044 0.0013,0.01368 0.0012,0.02035 0.0014,0.0062 -1.2e-4,0.01169 -1.94e-4,0.01752 -4.7e-5,0.006 -5.89e-4,0.0093 -6.65e-4,0.01517 -5.24e-4,0.0042 7.7e-5,0.01401 -1.2e-5,0.02079 1.78e-4,0.0062 -4.22e-4,0.0092 -4.98e-4,0.01497 -3.59e-4,0.0043 -7.15e-4,0.01192 -8.04e-4,0.01863 -6.24e-4,0.0049 -4.14e-4,0.01221 -5e-4,0.01863 -3.26e-4,0.0055 -3.51e-4,0.0118 -4.34e-4,0.01793 -2.68e-4,0.0056 0.001,0.01355 9.54e-4,0.01962 0.0011,0.0069 0.0011,0.01105 0.0011,0.0165 0.0012,0.006 -1.89e-4,0.01168 -2.7e-4,0.01755 -1.09e-4,0.0059 -3.6e-5,0.01206 -1.18e-4,0.01799 4.6e-5,0.006 -1.99e-4,0.0092 -2.81e-4,0.01503 -1.31e-4,0.0042 -5.75e-4,0.01251 -6.69e-4,0.01925 -4.75e-4,0.0053 -4.17e-4,0.01118 -5.05e-4,0.01741 -3.3e-4,0.005 -2.9e-5,0.01292 -1.19e-4,0.01926 6.7e-5,0.0061 2.39e-4,0.01226 1.56e-4,0.01808 3.24e-4,0.0063 3.27e-4,0.01171 2.45e-4,0.0174 4.06e-4,0.0061 0.0013,0.01221 0.0012,0.01801 0.0014,0.0063 1.81e-4,0.01188 9.8e-5,0.01757 2.63e-4,0.0062 -2.35e-4,0.0073 -3.19e-4,0.01302 -1.75e-4,0.0031 0.0016,0.01584 0.0015,0.02312 0.0017,0.0067 -1.94e-4,0.006 -2.76e-4,0.01147 -1.44e-4,0.0026 2.88e-4,0.01537 1.74e-4,0.02291 4.27e-4,0.0061 -6e-6,0.01187 -9.4e-5,0.01765 8.1e-5,0.0061 2.09e-4,0.01216 1.21e-4,0.01794 2.98e-4,0.0063 1.24e-4,0.01188 3.7e-5,0.01756 2.09e-4,0.0062 -7.76e-4,0.0097 -8.64e-4,0.01541 -6.99e-4,0.0047 2.42e-4,0.01334 1.42e-4,0.01978 3.53e-4,0.0062 -3.36e-4,0.0089 -4.26e-4,0.01457 -2.63e-4,0.0041 -2.84e-4,0.0117 -3.9e-4,0.01842 -1.74e-4,0.0047 4.6e-5,0.01322 -5.6e-5,0.01966 1.58e-4,0.0061 -8.09e-4,0.0093 -9.01e-4,0.01509 -7.3e-4,0.0044 0.002,0.01379 0.0019,0.02036 0.0021,0.0063 -3.9e-4,0.01028 -4.82e-4,0.01592 -3.08e-4,0.0052 -3.83e-4,0.01162 -4.84e-4,0.01781 -2.81e-4,0.0053 -2.26e-4,0.0086 -3.27e-4,0.01467 -1.42e-4,0.0034 -7.22e-4,0.01237 -8.39e-4,0.01941 -5.96e-4,0.0047 0.0012,0.01384 0.0011,0.02024 0.0013,0.0065 -4.44e-4,0.01041 -5.36e-4,0.01591 -3.62e-4,0.0054 -4.17e-4,0.01037 -5.19e-4,0.0164 -3.22e-4,0.0047 -4.3e-4,0.01207 -5.39e-4,0.01845 -3.17e-4,0.0054 -2.24e-4,0.01208 -3.28e-4,0.01813 -1.18e-4,0.0058 -4.99e-4,0.01099 -5.99e-4,0.01682 -4.03e-4,0.0054 8.15e-4,0.01293 7.1e-4,0.01897 9.27e-4,0.0064 5.4e-5,0.01147 -4.2e-5,0.017 1.47e-4,0.0061 -3.14e-4,0.011 -4.13e-4,0.01667 -2.19e-4,0.0056 -3.83e-4,0.01055 -4.88e-4,0.01646 -2.85e-4,0.0049 0.0011,0.01383 9.54e-4,0.02005 0.0012,0.0067 -2e-5,0.01096 -1.15e-4,0.0163 6.8e-5,0.006 -7.18e-4,0.0096 -8.2e-4,0.01529 -6.28e-4,0.0046 -2.93e-4,0.01263 -4.08e-4,0.01901 -1.68e-4,0.0057 -2.59e-4,0.01 -3.65e-4,0.01581 -1.63e-4,0.0047 -1.04e-4,0.01269 -2.2e-4,0.01902 2e-5,0.0058 4.8e-5,0.01192 -5.8e-5,0.01768 1.55e-4,0.006 5.8e-4,0.01223 4.76e-4,0.01786 6.88e-4,0.0064 4.23e-4,0.01179 3.22e-4,0.01723 5.22e-4,0.0064 0.0023,0.01167 0.0022,0.01713 0.0024,0.0063 -4.42e-4,0.0083 -5.46e-4,0.01385 -3.61e-4,0.0039 -6.16e-4,0.01175 -7.42e-4,0.01839 -4.84e-4,0.0047 -3.84e-4,0.0099 -5.03e-4,0.01612 -2.73e-4,0.004 -5.62e-4,0.01248 -6.89e-4,0.01909 -4.25e-4,0.0052 -8.35e-4,0.01026 -9.5e-4,0.01624 -7.27e-4,0.0046 -3.16e-4,0.0124 -4.38e-4,0.01869 -1.85e-4,0.0056 -4.09e-4,0.01117 -5.22e-4,0.01694 -2.98e-4,0.0055 -8.06e-4,0.0101 -9.21e-4,0.01594 -7.01e-4,0.0046 -3.22e-4,0.01195 -4.45e-4,0.01818 -1.93e-4,0.0054 6.12e-4,0.01296 4.96e-4,0.01884 7.4e-4,0.0065 -3.46e-4,0.01031 -4.51e-4,0.01561 -2.5e-4,0.0055 -8.93e-4,0.0078 -0.001,0.01358 -8e-4,0.0032 -3.35e-4,0.01368 -4.76e-4,0.02062 -1.72e-4,0.0055 1.72e-4,0.01165 5.5e-5,0.0174 2.9e-4,0.0058 4.48e-4,0.01166 3.33e-4,0.01729 5.64e-4,0.0059 1.55e-4,0.0114 4.1e-5,0.01693 2.67e-4,0.0059 5.84e-4,0.01132 4.69e-4,0.01688 6.97e-4,0.0058 -6.66e-4,0.0087 -7.82e-4,0.01433 -5.7e-4,0.004 -8.32e-4,0.0089 -9.67e-4,0.01538 -7.08e-4,0.003 -2.27e-4,0.0141 -3.73e-4,0.02107 -5.3e-5,0.0057 8.32e-4,0.01249 7.14e-4,0.01808 9.58e-4,0.0065 -4.82e-4,0.0098 -5.93e-4,0.01503 -3.85e-4,0.0052 5.29e-4,0.01268 4.05e-4,0.0185 6.63e-4,0.0063 -8.9e-5,0.01077 -2.02e-4,0.01604 1.9e-5,0.0058 -1.9e-4,0.01112 -3.09e-4,0.01666 -7.2e-5,0.0056 1.39e-4,0.0117 1.8e-5,0.01729 2.63e-4,0.0059 -6.24e-4,0.0094 -7.42e-4,0.01488 -5.21e-4,0.0046 2.83e-4,0.01278 1.51e-4,0.01884 4.3e-4,0.006 8.46e-4,0.01198 7.28e-4,0.01735 9.68e-4,0.0064 -2.85e-4,0.01024 -4e-4,0.01542 -1.81e-4,0.0055 0.0011,0.01238 9.68e-4,0.01799 0.0012,0.0063 -2.41e-4,0.01034 -3.57e-4,0.01553 -1.34e-4,0.0055 -3.98e-4,0.0098 -5.23e-4,0.01541 -2.84e-4,0.0047 7.1e-5,0.01254 -6.4e-5,0.01852 2.2e-4,0.0059 3.39e-4,0.01142 2.18e-4,0.01678 4.61e-4,0.006 6.8e-4,0.01072 5.59e-4,0.01602 7.97e-4,0.0056 -2.99e-4,0.01088 -4.25e-4,0.01638 -1.76e-4,0.0054 -3.02e-4,0.01086 -4.3e-4,0.01642 -1.75e-4,0.0053 -7.28e-4,0.0078 -8.58e-4,0.01339 -6.23e-4,0.0032 -6.66e-4,0.01006 -8.21e-4,0.0167 -5.11e-4,0.0033 0.0025,0.01331 0.0023,0.01989 0.0027,0.0056 3.78e-4,0.01125 2.49e-4,0.01671 5.07e-4,0.0057 -2.95e-4,0.0098 -4.23e-4,0.01521 -1.78e-4,0.0049 -1.83e-4,0.0117 -3.22e-4,0.01748 -3.7e-5,0.0055 -4.32e-4,0.01013 -5.63e-4,0.01556 -3.09e-4,0.005 0.0016,0.01219 0.0015,0.01789 0.0018,0.006 -4.66e-4,0.0099 -5.93e-4,0.01515 -3.49e-4,0.0051 4.34e-4,0.01186 2.97e-4,0.01746 5.8e-4,0.0059 -1.6e-5,0.01081 -1.45e-4,0.01604 1.09e-4,0.0057 -5.71e-4,0.0083 -7.02e-4,0.01366 -4.63e-4,0.0039 -4.78e-4,0.0085 -6.32e-4,0.01465 -3.39e-4,0.0028 -4.52e-4,0.01172 -6.2e-4,0.01842 -2.66e-4,0.0043 3.47e-4,0.0125 1.96e-4,0.01847 5.15e-4,0.0058 -3.7e-5,0.01071 -1.7e-4,0.01592 9.2e-5,0.0056 -5.49e-4,0.0092 -6.84e-4,0.01453 -4.29e-4,0.0045 2.53e-4,0.01251 1.03e-4,0.01834 4.2e-4,0.0059 -3.17e-4,0.0094 -4.48e-4,0.01452 -2e-4,0.0049 -9.21e-4,0.0074 -0.0011,0.01301 -8.03e-4,0.0028 -7.4e-5,0.01376 -2.47e-4,0.02038 1.36e-4,0.0057 -4.43e-4,0.0088 -5.79e-4,0.01395 -3.26e-4,0.0043 -3.14e-4,0.01173 -4.69e-4,0.01759 -1.46e-4,0.0053 -4.94e-4,0.0098 -6.35e-4,0.01513 -3.61e-4,0.0047 0.002,0.01222 0.0018,0.01781 0.0021,0.006 -6.86e-4,0.0088 -8.2e-4,0.01381 -5.72e-4,0.0045 -8.67e-4,0.0098 -0.001,0.01552 -7.17e-4,0.0043 -2.74e-4,0.01168 -4.32e-4,0.01748 -1.02e-4,0.0053 9.1e-5,0.01113 -5.2e-5,0.01638 2.38e-4,0.0057 -9.96e-4,0.0076 -0.0011,0.01269 -8.87e-4,0.0036 -3.86e-4,0.0121 -5.54e-4,0.01819 -1.97e-4,0.0052 -2.12e-4,0.01073 -3.58e-4,0.01602 -6.3e-5,0.0054 0.0011,0.01073 9.38e-4,0.01592 0.0012,0.0055 3.31e-4,0.01077 1.87e-4,0.0159 4.76e-4,0.0056 6e-6,0.01052 -1.37e-4,0.01559 1.47e-4,0.0055 -5.1e-4,0.0097 -6.54e-4,0.01478 -3.75e-4,0.0049 -3.04e-4,0.01074 -4.57e-4,0.0161 -1.47e-4,0.0052 0.0013,0.01175 0.0012,0.01694 0.0015,0.0061 -9.9e-5,0.0097 -2.35e-4,0.01448 2.7e-5,0.0053 9.43e-4,0.01114 7.96e-4,0.01624 0.0011,0.0058 -8.05e-4,0.0055 -9.47e-4,0.01036 -7.13e-4,0.0023 7.68e-4,0.01417 5.75e-4,0.02073 0.001,0.0058 -4.31e-4,0.0093 -5.73e-4,0.01411 -3.03e-4,0.0049 -8.04e-4,0.009 -9.59e-4,0.01423 -6.61e-4,0.0041 -2.86e-4,0.01133 -4.53e-4,0.01695 -1.04e-4,0.0052 -3.74e-4,0.0067 -5.27e-4,0.01178 -2.58e-4,0.0028 0.0024,0.01253 0.0022,0.01879 0.0026,0.0051 -2.49e-4,0.01035 -4.05e-4,0.01547 -9.3e-5,0.0052 0.002,0.01051 0.0018,0.01556 0.0021,0.0054 -6.01e-4,0.0091 -7.53e-4,0.01408 -4.61e-4,0.0045 2.12e-4,0.01113 4.7e-5,0.01645 3.89e-4,0.0054 -3.52e-4,0.0097 -5.04e-4,0.01461 -2.07e-4,0.005 8.08e-4,0.01115 6.49e-4,0.01622 9.77e-4,0.0057 -7.81e-4,0.0048 -9.29e-4,0.0095 -6.93e-4,0.0019 -2.86e-4,0.01332 -4.95e-4,0.01987 -2.8e-5,0.0051 8.31e-4,0.01116 6.73e-4,0.0161 9.98e-4,0.0059 -8.34e-4,0.0077 -9.81e-4,0.01233 -7.15e-4,0.004 4.22e-4,0.01204 2.45e-4,0.0175 6.24e-4,0.0057 -3.15e-4,0.0091 -4.66e-4,0.01372 -1.79e-4,0.0049 -3.26e-4,0.01 -4.9e-4,0.01499 -1.63e-4,0.0049 4.33e-4,0.01011 2.69e-4,0.01507 5.97e-4,0.0051 9e-6,0.01022 -1.54e-4,0.01511 1.73e-4,0.0052 9.47e-4,0.0099 7.87e-4,0.01464 0.0011,0.0051 -4.54e-4,0.0089 -6.17e-4,0.01375 -3.04e-4,0.0044 -9.34e-4,0.0082 -0.0011,0.01331 -7.76e-4,0.0034 1.37e-4,0.01132 -5.4e-5,0.01693 3.53e-4,0.005 -6.43e-4,0.0089 -8.09e-4,0.0138 -4.88e-4,0.0043 -7.56e-4,0.0082 -9.33e-4,0.01329 -5.95e-4,0.0035 0.0013,0.01248 0.0011,0.01803 0.0015,0.0058 -6.38e-4,0.0077 -7.92e-4,0.01213 -5.12e-4,0.0041 -3.01e-4,0.01054 -4.84e-4,0.01573 -1.05e-4,0.0049 0.0015,0.0099 0.0013,0.0147 0.0016,0.0051 -4.47e-4,0.0092 -6.15e-4,0.01391 -2.85e-4,0.0046 -7.54e-4,0.0087 -9.29e-4,0.01355 -5.9e-4,0.0041 -3.22e-4,0.01036 -5.08e-4,0.0155 -1.24e-4,0.0048 6.85e-4,0.0096 5.13e-4,0.01435 8.56e-4,0.0048 -3.47e-4,0.0064 -5.2e-4,0.01115 -2.12e-4,0.0027 -2.67e-4,0.01173 -4.8e-4,0.01751 -1.5e-5,0.0048 -7.5e-5,0.0097 -2.48e-4,0.01434 9.9e-5,0.0049 -7.83e-4,0.0079 -9.56e-4,0.01255 -6.3e-4,0.0038 0.0017,0.01123 0.0015,0.01639 0.0019,0.0053 8.52e-4,0.0089 6.85e-4,0.01335 0.001,0.0047 1.51e-4,0.0096 -2.7e-5,0.01433 3.31e-4,0.0049 0.001,0.01005 8.67e-4,0.01464 0.0012,0.0053 -2.87e-4,0.0089 -4.57e-4,0.01328 -1.28e-4,0.0047 -4.51e-4,0.009 -6.3e-4,0.01364 -2.77e-4,0.0045 7.14e-4,0.01 5.3e-4,0.0147 9.07e-4,0.005 -3.04e-4,0.0089 -4.8e-4,0.01338 -1.36e-4,0.0046 -3.87e-4,0.0092 -5.7e-4,0.01376 -2.07e-4,0.0046 -9.36e-4,0.0072 -0.0011,0.01185 -7.79e-4,0.0033 -4.4e-4,0.01045 -6.51e-4,0.01569 -2.04e-4,0.0045 -9.24e-4,0.0062 -0.0011,0.01075 -7.8e-4,0.0026 5.77e-4,0.012 3.5e-4,0.01755 8.54e-4,0.0052 -2.43e-4,0.0087 -4.18e-4,0.01298 -7.8e-5,0.0047 -3.7e-4,0.0089 -5.55e-4,0.01341 -1.87e-4,0.0045 -4.11e-4,0.0074 -5.99e-4,0.01196 -2.46e-4,0.0034 -8.15e-4,0.0058 -0.001,0.01084 -6.42e-4,0.0016 -0.0011,0.0089 -0.0013,0.01481 -7.89e-4,0.0025 -9.36e-4,0.0094 -0.0012,0.01478 -6.85e-4,0.0034 -8.31e-4,0.0089 -0.001,0.01382 -6.13e-4,0.0037 0.0018,0.01007 0.0016,0.01486 0.002,0.0048 -2.74e-4,0.0087 -4.62e-4,0.01297 -9.2e-5,0.0044 -7.08e-4,0.0075 -9.02e-4,0.01194 -5.35e-4,0.0035 -2.21e-4,0.01 -4.34e-4,0.01481 1.4e-5,0.0046 -3.08e-4,0.0087 -4.99e-4,0.01301 -1.21e-4,0.0045 2.42e-4,0.0097 4.8e-5,0.01399 4.47e-4,0.005 -6.94e-4,0.0071 -8.76e-4,0.01119 -5.42e-4,0.0037 -8.37e-4,0.0077 -0.001,0.01238 -6.37e-4,0.0033 -5.04e-4,0.0062 -7.25e-4,0.011 -3.14e-4,0.0019 -0.0012,0.0089 -0.0014,0.01441 -8.8e-4,0.0029 -9.02e-4,0.0084 -0.0011,0.01341 -6.65e-4,0.0032 -5.44e-4,0.0094 -7.67e-4,0.01419 -3.01e-4,0.0041 -4.29e-4,0.003 -6.32e-4,0.0074 -3.11e-4,4.87e-4 -9.91e-4,0.01062 -0.0013,0.01676 -6.4e-4,0.0031 -9.1e-4,0.0074 -0.0011,0.01217 -6.92e-4,0.0027 -3.69e-4,0.01013 -6.06e-4,0.01509 -9.5e-5,0.0044 -1.56e-4,0.0083 -3.55e-4,0.01246 3.9e-5,0.0042 -3.36e-4,0.0085 -5.38e-4,0.01273 -1.33e-4,0.0043 -0.0011,0.0056 -0.0013,0.0098 -9.51e-4,0.0024 9.8e-5,0.01032 -1.47e-4,0.01535 3.88e-4,0.0043 -7.86e-4,0.0037 -9.85e-4,0.0078 -6.62e-4,0.0012 -5.39e-4,0.01128 -8.15e-4,0.01688 -1.91e-4,0.0041 -4.27e-4,0.0082 -6.3e-4,0.01231 -2.24e-4,0.0041 -3.11e-4,0.0084 -5.15e-4,0.01254 -1.03e-4,0.0042 -0.001,0.0058 -0.0012,0.0098 -8.4e-4,0.0026 -5.89e-4,0.0094 -8.31e-4,0.01426 -3.14e-4,0.0039 -5.64e-4,0.0079 -7.72e-4,0.012 -3.59e-4,0.0038 -1.83e-4,0.0084 -3.94e-4,0.01259 3.5e-5,0.0041 -4.7e-4,0.0033 -6.73e-4,0.0073 -3.48e-4,8.51e-4 -2.5e-5,0.01167 -3.1e-4,0.01725 3.49e-4,0.0043 -4.8e-4,0.0075 -6.78e-4,0.01138 -2.92e-4,0.0039 -1.54e-4,0.0084 -3.63e-4,0.01246 6.2e-5,0.0042 3.53e-4,0.0086 1.53e-4,0.01245 5.62e-4,0.0046 2e-5,0.0075 -1.71e-4,0.0112 1.99e-4,0.0041 -2.54e-4,0.008 -4.57e-4,0.01192 -4.9e-5,0.0041 -5.29e-4,0.0073 -7.3e-4,0.01107 -3.4e-4,0.0036 -8.73e-4,0.0057 -0.0011,0.0097 -6.95e-4,0.0023 0.0011,0.01071 8.64e-4,0.01536 0.0014,0.0048 -7.72e-4,0.0057 -9.56e-4,0.0091 -6.32e-4,0.003 1.09e-4,0.0085 -1.18e-4,0.01276 3.57e-4,0.0039 1e-4,0.0083 -1.07e-4,0.01218 3.18e-4,0.0043 -7.45e-4,0.0061 -9.41e-4,0.0097 -5.81e-4,0.003 -2.42e-4,0.0084 -4.69e-4,0.01253 5e-6,0.0038 -2.11e-4,0.0079 -4.19e-4,0.0117 2e-6,0.004 -4.63e-4,0.0071 -6.65e-4,0.01079 -2.72e-4,0.0036 -3.69e-4,0.0077 -5.8e-4,0.01152 -1.55e-4,0.0038 -5.25e-4,0.0071 -7.31e-4,0.01081 -3.25e-4,0.0035 -6.03e-4,0.007 -8.16e-4,0.01078 -3.97e-4,0.0032 -6.5e-4,0.0072 -8.71e-4,0.01111 -4.28e-4,0.0032 4.78e-4,0.0082 2.58e-4,0.01207 7.16e-4,0.0039 -5.23e-4,0.0061 -7.25e-4,0.0096 -3.47e-4,0.0029 1.62e-4,0.0085 -6.7e-5,0.01253 4.21e-4,0.004 -1.68e-4,0.0073 -3.67e-4,0.01076 2.8e-5,0.0039 2.85e-4,0.0079 8.3e-5,0.01144 4.97e-4,0.0042 -4.36e-4,0.0065 -6.27e-4,0.0098 -2.63e-4,0.0035 -5.32e-4,0.0063 -7.42e-4,0.0099 -3.37e-4,0.0029 -2.9e-4,0.0078 -5.18e-4,0.01166 -4.4e-5,0.0036 2.99e-4,0.0075 9e-5,0.011 5.13e-4,0.0038 -9.97e-4,0.0035 -0.0012,0.0069 -8.67e-4,0.0013 -4.03e-4,0.0095 -6.79e-4,0.01409 -5.7e-5,0.0037 6.34e-4,0.0069 4.29e-4,0.01032 8.34e-4,0.0036 4.06e-4,0.0081 1.96e-4,0.01151 6.36e-4,0.0042 -1.16e-4,0.0066 -3.05e-4,0.0097 5.8e-5,0.0037 -2.17e-4,0.007 -4.2e-4,0.01032 -1.5e-5,0.0037 0.0014,0.0078 0.0012,0.01112 0.0016,0.0042 -7.4e-5,0.0064 -2.63e-4,0.0094 9.7e-5,0.0036 0.0018,0.0072 0.0016,0.0105 0.002,0.0038 -2.63e-4,0.0064 -4.65e-4,0.0096 -7.1e-5,0.0034 -8.82e-4,0.0054 -0.0011,0.0088 -6.95e-4,0.0025 -6.1e-4,0.007 -8.5e-4,0.01075 -3.56e-4,0.003 -4.47e-4,0.007 -6.72e-4,0.01042 -2.14e-4,0.0033 3.68e-4,0.0071 1.53e-4,0.01037 5.91e-4,0.0036 -6.4e-4,0.0046 -8.46e-4,0.0077 -4.8e-4,0.0022 -5.63e-4,0.0074 -8.14e-4,0.01123 -2.8e-4,0.0031 -4.67e-4,0.0064 -6.87e-4,0.0097 -2.48e-4,0.0031 -5.97e-4,0.0047 -8.18e-4,0.008 -4.13e-4,0.002 -6.65e-4,0.0067 -9.24e-4,0.01049 -3.87e-4,0.0025 -3.96e-4,0.0071 -6.36e-4,0.01062 -1.32e-4,0.0033 0.0012,0.0072 9.69e-4,0.01036 0.0014,0.0039 3.7e-4,0.0062 1.72e-4,0.0091 5.59e-4,0.0035 8.28e-4,0.0071 6.2e-4,0.0101 0.0011,0.004 -7.6e-4,0.0029 -9.54e-4,0.0056 -6.54e-4,0.0014 5.76e-4,0.0087 2.95e-4,0.01257 9.33e-4,0.0036 1.6e-5,0.0062 -1.89e-4,0.009 2.14e-4,0.0034 -3.38e-4,0.0059 -5.49e-4,0.0088 -1.37e-4,0.0031 5.87e-4,0.0061 3.65e-4,0.0091 8.06e-4,0.0031 1.02e-4,0.0062 -1.23e-4,0.0092 3.29e-4,0.0031 -9.38e-4,0.0036 -0.0012,0.0066 -7.78e-4,0.0015 0.0011,0.0083 7.99e-4,0.01197 0.0014,0.0036 0.0023,0.0056 0.0021,0.0083 0.0025,0.0031 -4.41e-4,0.0059 -6.71e-4,0.0089 -2.11e-4,0.0029 8.93e-4,0.0068 6.64e-4,0.0097 0.0011,0.0036 -3.75e-4,0.0053 -5.84e-4,0.0079 -1.88e-4,0.0029 -7.46e-4,0.0051 -9.76e-4,0.0079 -5.37e-4,0.0024 5.76e-4,0.0074 3.25e-4,0.01044 8.73e-4,0.0037 -6.23e-4,8.92e-4 -8.26e-4,0.0033 -5.64e-4,1.45e-4 0.001,0.0096 6.5e-4,0.01369 0.0015,0.0037 -5.91e-4,0.0021 -7.98e-4,0.0045 -4.96e-4,9.46e-4 -8.81e-4,0.0068 -0.0012,0.01052 -5.01e-4,0.0024 -6.39e-4,0.0056 -8.98e-4,0.0085 -3.76e-4,0.0025 0.0012,0.0062 9.11e-4,0.009 0.0014,0.0031 -6.95e-4,0.0034 -9.29e-4,0.0059 -5.29e-4,0.0015 -0.0011,0.0054 -0.0014,0.0087 -7.4e-4,0.0019 3.27e-4,0.0068 4.3e-5,0.0098 6.64e-4,0.0032 -1.3e-4,0.0054 -3.61e-4,0.0079 9.5e-5,0.003 -8.82e-4,0.001 -0.0011,0.0035 -7.89e-4,-5e-6 -9.87e-4,0.0056 -0.0014,0.0095 -5.59e-4,0.0011 -6.68e-4,0.0066 -9.94e-4,0.0099 -2.73e-4,0.0025 -0.0012,0.0026 -0.0014,0.0051 -0.001,8.02e-4 -4e-5,0.0078 -3.82e-4,0.01113 4.15e-4,0.0032 -3.83e-4,0.0046 -6.1e-4,0.0068 -1.85e-4,0.0026 -8.03e-4,0.0035 -0.0011,0.0059 -6.03e-4,0.0015 -6.21e-4,0.0059 -9.3e-4,0.0089 -2.64e-4,0.0025 -1.95e-4,0.0051 -4.55e-4,0.0075 6.8e-5,0.0026 -7.58e-4,0.0042 -0.001,0.0066 -5.28e-4,0.002 -9.34e-4,0.0041 -0.0012,0.0067 -6.72e-4,0.0017 -5.44e-4,0.0056 -8.42e-4,0.0083 -2.05e-4,0.0024 -4.6e-5,0.0055 -3.05e-4,0.0078 2.36e-4,0.0029 2.81e-4,0.0052 4.7e-5,0.0073 5.23e-4,0.003 -1.18e-4,0.0041 -3.44e-4,0.0061 7.4e-5,0.0024 -5.51e-4,0.0015 -8.11e-4,0.0038 -4.1e-4,2.48e-4 5.8e-5,0.0076 -3.21e-4,0.01092 5.87e-4,0.003 0.0012,0.0046 9.33e-4,0.0065 0.0014,0.0028 0.0013,0.0043 0.001,0.0064 0.0015,0.0024 0.0015,0.0051 0.0012,0.0074 0.0018,0.0027 -7.79e-4,0.0014 -0.001,0.0035 -6.59e-4,3.6e-4 -6.65e-4,0.0063 -0.001,0.0094 -1.72e-4,0.0023 -0.0011,0.0017 -0.0014,0.0038 -9.89e-4,4.6e-4 0.0012,0.0061 8.19e-4,0.009 0.0017,0.0024 2.66e-4,0.0045 -1.1e-5,0.0066 5.47e-4,0.0023 -7.34e-4,0.0024 -0.001,0.0045 -5.44e-4,9.6e-4 7.18e-4,0.006 3.65e-4,0.0086 0.0012,0.0027 -5.52e-4,-4e-4 -8.06e-4,0.0014 -5.17e-4,-6.95e-4 -7.5e-4,0.0071 -0.0012,0.01046 -7.8e-5,0.0022 -1.2e-5,0.004 -2.84e-4,0.0059 2.48e-4,0.0021 -0.001,0.0026 -0.0013,0.0046 -7.84e-4,0.0011 -3.8e-4,0.0052 -7.28e-4,0.0075 4.5e-5,0.0023 -6.2e-4,0.0028 -8.9e-4,0.0046 -4.11e-4,0.0014 6.08e-4,0.0055 2.78e-4,0.0076 0.001,0.0027 -5.84e-4,0.0029 -8.28e-4,0.0044 -4.02e-4,0.0017 0.002,0.0042 0.0017,0.0061 0.0023,0.0022 9.38e-4,0.0048 6.36e-4,0.0067 0.0013,0.0026 3.22e-4,0.0037 6.6e-5,0.0053 5.57e-4,0.0023 5.31e-4,0.0041 2.55e-4,0.0057 8.09e-4,0.0024 -0.0011,0.0016 -0.0014,0.0031 -9.6e-4,6.62e-4 -9.27e-4,0.0041 -0.0013,0.0064 -4.69e-4,0.0015 3.33e-4,0.0046 -1e-6,0.0064 7.29e-4,0.0024 -9.18e-4,-7.88e-4 -0.0012,6.68e-4 -9.21e-4,-8.19e-4 -0.0011,0.0056 -0.0017,0.0084 -3.95e-4,0.0015 -7.95e-4,0.0031 -0.0011,0.0048 -4.66e-4,0.0014 -0.0013,4.58e-4 -0.0016,0.0022 -0.0011,-4.28e-4 1.12e-4,0.0063 -4e-4,0.0088 8.74e-4,0.0025 -8.74e-4,0.0015 -0.0011,0.0028 -7.43e-4,8.81e-4 -0.0014,0.001 -0.0018,0.0028 -0.0011,-3.03e-4 -0.001,0.0046 -0.0015,0.0069 -3.36e-4,0.0015 -0.0013,5.97e-4 -0.0017,0.0021 -0.0012,-2e-4 -0.0015,-3.43e-4 -0.0019,0.0018 -0.0011,-0.0018 -0.0013,0.0058 -0.0019,0.0086 -3.16e-4,0.0014 -3.36e-4,0.0032 -6.5e-4,0.0046 9e-6,0.0017 -5.45e-4,0.0026 -8.29e-4,0.0038 -2.8e-4,0.0014 -0.0011,2.52e-4 -0.0014,0.0016 -0.001,-3.58e-4 -0.0013,0.003 -0.0018,0.0051 -7.11e-4,5.37e-4 -7.44e-4,0.0032 -0.0011,0.0048 -2.93e-4,0.0013 -0.0012,8.2e-5 -0.0015,0.0013 -0.0011,-4.74e-4 -0.0011,0.0035 -0.0015,0.0055 -4.67e-4,8.95e-4 -0.0012,0.0012 -0.0015,0.0025 -9.42e-4,1.11e-4 -7.5e-4,0.0033 -0.0011,0.0049 -2.67e-4,0.0012 -3.09e-4,0.0027 -5.71e-4,0.0039 -1.4e-5,0.0014 -3.01e-4,0.0023 -5.33e-4,0.0033 -7.3e-5,0.0013 -6.21e-4,-4.62e-4 -8.59e-4,6.09e-4 -5.71e-4,-6.81e-4 -0.0014,0.0015 -0.0018,0.0034 -9.43e-4,-5.89e-4 -5.05e-4,0.0041 -8.9e-4,0.0059 8.8e-5,0.0014 -0.001,-0.001 -0.0012,-8.7e-5 -0.001,-9.33e-4 -8.17e-4,0.0035 -0.0012,0.0054 -2.45e-4,7.91e-4 -1.23e-4,0.0024 -3.49e-4,0.0036 1.43e-4,0.0011 9.54e-4,0.0029 7.64e-4,0.0039 0.0012,0.0018 0.001,0.0024 8.68e-4,0.0032 0.0012,0.0017 0.0011,0.0023 9.87e-4,0.003 0.0013,0.0016 -3.5e-4,0.0014 -5.11e-4,0.0022 -2.34e-4,8.56e-4 -4e-6,0.0022 -2.09e-4,0.0031 2.16e-4,0.0011 -5.81e-4,0.0011 -7.68e-4,0.0019 -4.5e-4,4.54e-4 -7.42e-4,0.0014 -9.84e-4,0.0025 -5.05e-4,3.86e-4 -3.3e-5,0.0025 -2.78e-4,0.0035 2.81e-4,0.0011 8.74e-4,0.0025 6.99e-4,0.0032 0.0011,0.0016 -6.65e-4,8.3e-5 -8.06e-4,6.17e-4 -6.67e-4,5.7e-5 6.87e-4,0.0024 4.01e-4,0.0034 0.001,0.001 0.0011,0.0028 8.73e-4,0.0035 0.0014,0.0017 -7.79e-4,-0.0031 -9.3e-4,-0.0026 -0.0011,-0.0021 -0.0016,0.0017 -0.0023,0.0036 -7.72e-4,-8.77e-4 -0.0014,4.44e-4 -0.0019,0.0016 -9.5e-4,-8.7e-4 -0.0013,-4.38e-4 -0.0017,6.52e-4 -9.7e-4,-0.0014 -2.8e-4,0.0034 -6.9e-4,0.0047 4.84e-4,0.0012 0.0019,0.001 0.0018,0.0014 0.002,9.91e-4 -8.98e-4,9.6e-5 -0.0011,7.64e-4 -7.52e-4,-4.32e-4 -5.86e-4,0.0017 -8.94e-4,0.0025 -1.65e-4,4.79e-4 -9.93e-4,-0.0011 -0.0012,-6.6e-4 -0.001,-0.0011 -9.88e-4,2.46e-4 -0.0013,0.0012 -5.71e-4,-8.11e-4 -0.0012,-3.34e-4 -0.0014,6.25e-4 -8.83e-4,-0.0011 -4.59e-4,0.0023 -6.46e-4,0.0034 -1.4e-5,4.66e-4 -2.86e-4,-0.0015 -3.41e-4,-0.0011 -3.15e-4,-0.0012 -4.49e-4,0.0017 -5.36e-4,0.0029 -2.3e-4,-5e-5 5.44e-4,0.0018 5.22e-4,0.0024 6.09e-4,7.87e-4 -1.97e-4,-0.0014 -2.01e-4,-0.0013 -2.29e-4,-8.25e-4 0.0011,0.0029 0.0011,0.0037 0.0012,0.0013 -1.45e-4,-0.0024 -1.45e-4,-0.0024 -2.12e-4,-0.0016 -6.19e-4,8.74e-4 -9.23e-4,0.0017 -4.27e-4,-4.48e-4 -3.99e-4,2.69e-4 -4.9e-4,7.61e-4 -1.94e-4,-3.19e-4 -6.57e-4,-0.0026 -6.66e-4,-0.0022 -5.75e-4,-0.0031 2.75e-4,0.0028 4.02e-4,0.0038 2.7e-5,2.07e-4 1.6e-5,-4.72e-4 1.2e-5,-4.68e-4 z"
         inkscape:path-effect="#path-effect869"
         inkscape:original-d="m 92.757578,88.369576 c -0.136094,0.136094 -0.577398,0 -0.577398,0 0,0 -0.05589,-10.024745 0,-10.16671 0.130374,-0.08981 0.505436,-0.03663 0.577398,0 0.05169,0.09246 0.07247,10.07218 0,10.16671 z"
         sodipodi:nodetypes="ccccc" />
      <path
         style="display:inline;fill:#a2a2a2;fill-opacity:1;fill-rule:nonzero;stroke:none;stroke-width:0.167;stroke-linejoin:miter;stroke-miterlimit:1.6;stroke-dasharray:none;stroke-opacity:1"
         id="path11265"
         sodipodi:nodetypes="cccccc"
         class="UnoptimicedTransforms"
         d="M 61.018774,71.848781 C 101.63612,55.649764 98.313026,90.56748 72.39165,108.32539 95.990477,103.27922 133.5339,104.32322 133.57074,61.7007 133.5339,19.078183 95.990477,20.122182 72.39165,15.076014 98.313026,32.833923 101.63612,67.75164 61.018774,51.55262 Z"
         transform="matrix(0.06638341,0,0,0.06638341,88.192118,75.314535)" />
      <path
         id="path6560"
         style="display:inline;fill:#e3e3e3;fill-opacity:1;fill-rule:nonzero;stroke:none;stroke-width:0.167;stroke-linejoin:miter;stroke-miterlimit:1.6;stroke-dasharray:none;stroke-opacity:1"
         class="UnoptimicedTransforms"
         d="M 72.391447,15.076082 C 95.99025,20.122245 125.99784,19.078152 126.03468,61.700627 125.99784,104.3231 95.99025,103.27901 72.391447,108.32517 95.99025,103.27901 133.53382,104.3231 133.57066,61.700627 133.53382,19.078152 95.99025,20.122245 72.391447,15.076082 Z"
         transform="matrix(0.06638341,0,0,0.06638341,88.192118,75.314535)" />
    </g>
  </g>
</svg>
